<svg id="illustration-presentation-1" xmlns="http://www.w3.org/2000/svg" xmlns:xlink="http://www.w3.org/1999/xlink" width="500.001" height="500" viewBox="0 0 500.001 500">
  <defs>
    <clipPath id="clip-path">
      <path id="Path_4959" data-name="Path 4959" d="M1579.06,142.61s-1.6-13.53,7.39-7.06C1586.45,135.55,1588,144.15,1579.06,142.61Z" fill="none"/>
    </clipPath>
    <clipPath id="clip-path-2">
      <path id="Path_4961" data-name="Path 4961" d="M1571.93,145.9s-6.85-10.39-14.15.5C1557.78,146.4,1565.6,155.35,1571.93,145.9Z" fill="none"/>
    </clipPath>
    <clipPath id="clip-path-3">
      <path id="Path_4983" data-name="Path 4983" d="M1572.96,274.15s34.49-22.82,41.1-31.85c3.26-4.45,2.04-5.44,2.04-5.44h0a3.077,3.077,0,0,0-4.35-.56l-42.48,33.35Z" fill="none"/>
    </clipPath>
    <clipPath id="clip-path-4">
      <path id="Path_4985" data-name="Path 4985" d="M1572.01,280.79s33.47-21.25,39.55-30.05c3-4.34,1.82-5.34,1.82-5.34l-38.18,27.7-3.18,7.69Z" fill="none"/>
    </clipPath>
  </defs>
  <g id="Group_3805" data-name="Group 3805" transform="translate(-1383.57 -492.445)">
    <path id="Path_6476" data-name="Path 6476" d="M262.3,181.41a17.435,17.435,0,0,0-5.933-11.282s-2.812-25.306-7.057-19.7-14.315-.081-17.386,1.626a15.728,15.728,0,0,0-7.437,9.775c-1.384-.675-4.132,5.81-5.089,7.4s-4.189,8.367-5.959,12.178a17.925,17.925,0,0,0-.422,13.072l47.269,5.974C264.4,196.9,263.277,188.992,262.3,181.41Z" transform="translate(1163.651 589.05) rotate(-26)"/>
    <g id="Group_3715" data-name="Group 3715" transform="translate(-104.1 514.245)">
      <path id="Path_4618" data-name="Path 4618" d="M1773.69,204.38a1.25,1.25,0,0,1-1.25-1.25V179.3a8.612,8.612,0,0,1,8.6-8.6h64.45a1.25,1.25,0,0,1,0,2.5h-64.45a6.105,6.105,0,0,0-6.1,6.1v23.83A1.25,1.25,0,0,1,1773.69,204.38Z"/>
      <circle id="Ellipse_94" data-name="Ellipse 94" cx="16.64" cy="16.64" r="16.64" transform="translate(1757.05 186.49)" fill="#40476d"/>
      <rect id="Rectangle_140" data-name="Rectangle 140" width="31.82" height="31.82" rx="4.71" transform="translate(1840.93 156.04)" fill="#fd521b"/>
      <path id="Path_4619" data-name="Path 4619" d="M1856.84,181.28a9.33,9.33,0,1,1,9.33-9.33A9.34,9.34,0,0,1,1856.84,181.28Zm0-16.16a6.83,6.83,0,1,0,6.83,6.83A6.839,6.839,0,0,0,1856.84,165.12Z" fill="#fff"/>
      <g id="Group_3714" data-name="Group 3714">
        <path id="Path_4620" data-name="Path 4620" d="M1773.53,209.21a1.266,1.266,0,0,1-.9-.38,1.249,1.249,0,0,1,.02-1.77l9.55-9.33a1.252,1.252,0,1,1,1.75,1.79l-9.55,9.33a1.241,1.241,0,0,1-.88.36Z" fill="#fff"/>
        <path id="Path_4621" data-name="Path 4621" d="M1773.53,209.21a1.258,1.258,0,0,1-.91-.39l-9.24-9.66a1.252,1.252,0,0,1,1.81-1.73l9.24,9.66a1.25,1.25,0,0,1-.04,1.77,1.269,1.269,0,0,1-.87.35Z" fill="#fff"/>
      </g>
    </g>
    <g id="Group_3719" data-name="Group 3719" transform="translate(-104.1 514.245)">
      <path id="Path_4622" data-name="Path 4622" d="M1657.99,139.6a1.25,1.25,0,0,1-1.25-1.25V109.46a6.9,6.9,0,0,1,6.89-6.89H1706a1.25,1.25,0,0,1,0,2.5h-42.37a4.385,4.385,0,0,0-4.38,4.38v28.89a1.25,1.25,0,0,1-1.25,1.25Z"/>
      <path id="Path_4623" data-name="Path 4623" d="M1699.38,177.83h-37.4a5.245,5.245,0,0,1-5.24-5.24v-9.88a1.25,1.25,0,0,1,2.5,0v9.88a2.733,2.733,0,0,0,2.73,2.73h37.4a1.25,1.25,0,0,1,0,2.5Z"/>
      <rect id="Rectangle_141" data-name="Rectangle 141" width="32.83" height="32.83" rx="4.19" transform="translate(1731.25 187.77) rotate(180)" fill="#5774cd"/>
      <rect id="Rectangle_142" data-name="Rectangle 142" width="25.41" height="8.1" rx="1.58" transform="translate(1727.54 168.07) rotate(180)" fill="#fff"/>
      <rect id="Rectangle_143" data-name="Rectangle 143" width="25.41" height="11.37" rx="1.87" transform="translate(1727.54 182.26) rotate(180)" fill="#fff"/>
      <g id="Group_3717" data-name="Group 3717">
        <path id="Path_4624" data-name="Path 4624" d="M1640.28,144.46a11.27,11.27,0,1,1,11.27-11.27A11.282,11.282,0,0,1,1640.28,144.46Zm0-20.04a8.77,8.77,0,1,0,8.77,8.77,8.781,8.781,0,0,0-8.77-8.77Z"/>
        <rect id="Rectangle_144" data-name="Rectangle 144" width="28.45" height="28.45" rx="3.63" transform="translate(1643.76 136.76)" fill="#40476d"/>
        <rect id="Rectangle_145" data-name="Rectangle 145" width="9.62" height="9.62" rx="1.24" transform="translate(1633.469 133.179) rotate(-45)" fill="#fd521b"/>
        <g id="Group_3716" data-name="Group 3716">
          <path id="Path_4625" data-name="Path 4625" d="M1658.15,156.99a1.258,1.258,0,0,1-.88-.36l-9.55-9.33a1.252,1.252,0,1,1,1.75-1.79l9.55,9.33a1.255,1.255,0,0,1-.88,2.15Z" fill="#5774cd"/>
          <path id="Path_4626" data-name="Path 4626" d="M1658.15,156.99a1.287,1.287,0,0,1-.87-.35,1.25,1.25,0,0,1-.04-1.77l9.24-9.66a1.252,1.252,0,0,1,1.81,1.73l-9.24,9.66a1.258,1.258,0,0,1-.91.39Z" fill="#5774cd"/>
        </g>
      </g>
      <circle id="Ellipse_95" data-name="Ellipse 95" cx="16.64" cy="16.64" r="16.64" transform="translate(1695.236 91.348) rotate(-13.28)" fill="#fd521b"/>
      <g id="Group_3718" data-name="Group 3718">
        <path id="Path_4627" data-name="Path 4627" d="M1715.39,109.73a1.258,1.258,0,0,1-.88-.36l-9.55-9.33a1.252,1.252,0,1,1,1.75-1.79l9.55,9.33a1.255,1.255,0,0,1-.88,2.15Z" fill="#fff"/>
        <path id="Path_4628" data-name="Path 4628" d="M1715.39,109.73a1.287,1.287,0,0,1-.87-.35,1.25,1.25,0,0,1-.04-1.77l9.24-9.66a1.252,1.252,0,0,1,1.81,1.73l-9.24,9.66a1.258,1.258,0,0,1-.91.39Z" fill="#fff"/>
      </g>
    </g>
    <g id="Group_3721" data-name="Group 3721" transform="translate(-104.1 514.245)">
      <rect id="Rectangle_146" data-name="Rectangle 146" width="128.82" height="55.91" rx="6.53" transform="translate(1744.88 90.5)" fill="#5774cd"/>
      <g id="Group_3720" data-name="Group 3720">
        <path id="Path_4629" data-name="Path 4629" d="M1795.55,142.64h0a2.4,2.4,0,0,1-2.4-2.4V127.2a2.4,2.4,0,0,1,2.4-2.4h0a2.4,2.4,0,0,1,2.4,2.4v13.04A2.4,2.4,0,0,1,1795.55,142.64Z" fill="#40476d"/>
        <path id="Path_4630" data-name="Path 4630" d="M1804.03,142.64h0a2.4,2.4,0,0,1-2.4-2.4V108.23a2.4,2.4,0,0,1,2.4-2.4h0a2.4,2.4,0,0,1,2.4,2.4v32.01A2.4,2.4,0,0,1,1804.03,142.64Z" fill="#40476d"/>
        <path id="Path_4631" data-name="Path 4631" d="M1812.5,142.64h0a2.4,2.4,0,0,1-2.4-2.4v-7.9a2.4,2.4,0,0,1,2.4-2.4h0a2.4,2.4,0,0,1,2.4,2.4v7.9A2.4,2.4,0,0,1,1812.5,142.64Z" fill="#40476d"/>
        <rect id="Rectangle_147" data-name="Rectangle 147" width="4.79" height="18.14" rx="2.25" transform="translate(1818.59 124.5)" fill="#40476d"/>
        <rect id="Rectangle_148" data-name="Rectangle 148" width="4.79" height="18.14" rx="1.98" transform="translate(1827.06 124.5)" fill="#40476d"/>
        <path id="Path_4632" data-name="Path 4632" d="M1837.94,142.64h0a2.4,2.4,0,0,1-2.4-2.4V119.36a2.4,2.4,0,0,1,2.4-2.4h0a2.4,2.4,0,0,1,2.4,2.4v20.88A2.4,2.4,0,0,1,1837.94,142.64Z" fill="#40476d"/>
        <path id="Path_4633" data-name="Path 4633" d="M1846.41,142.64h0a2.4,2.4,0,0,1-2.4-2.4V111.68a2.4,2.4,0,0,1,2.4-2.4h0a2.4,2.4,0,0,1,2.4,2.4v28.56A2.4,2.4,0,0,1,1846.41,142.64Z" fill="#40476d"/>
        <path id="Path_4634" data-name="Path 4634" d="M1854.89,142.64h0a2.4,2.4,0,0,1-2.4-2.4V108.23a2.4,2.4,0,0,1,2.4-2.4h0a2.4,2.4,0,0,1,2.4,2.4v32.01A2.4,2.4,0,0,1,1854.89,142.64Z" fill="#40476d"/>
        <path id="Path_4635" data-name="Path 4635" d="M1863.37,142.64h0a2.4,2.4,0,0,1-2.4-2.4V100.52a2.4,2.4,0,0,1,2.4-2.4h0a2.4,2.4,0,0,1,2.4,2.4v39.72A2.4,2.4,0,0,1,1863.37,142.64Z" fill="#40476d"/>
      </g>
      <rect id="Rectangle_149" data-name="Rectangle 149" width="31.82" height="23.55" rx="4.05" transform="translate(1750.87 98.13)" fill="#40476d"/>
      <rect id="Rectangle_150" data-name="Rectangle 150" width="31.82" height="17.49" rx="3.49" transform="translate(1750.87 124.98)" fill="#40476d"/>
    </g>
    <path id="Path_4636" data-name="Path 4636" d="M1871.5,233.58H1632.46a12.611,12.611,0,0,1-12.6-12.6V85.8a12.611,12.611,0,0,1,12.6-12.6H1871.5a12.611,12.611,0,0,1,12.6,12.6V220.98A12.611,12.611,0,0,1,1871.5,233.58ZM1632.46,75.7a10.1,10.1,0,0,0-10.09,10.09V220.98a10.1,10.1,0,0,0,10.09,10.09H1871.5a10.1,10.1,0,0,0,10.09-10.09V85.8a10.1,10.1,0,0,0-10.09-10.09H1632.46Z" transform="translate(-104.1 514.245)"/>
    <path id="Path_4637" data-name="Path 4637" d="M1724.95,210.14s13.17-14.75,25.32-16.23c7.26-.88,12.13-1.58,14.87-2a3.3,3.3,0,0,0,2.83-3.1h0a2.506,2.506,0,0,0-2.39-2.57,66.62,66.62,0,0,0-23.4,2.85c-10.75,3.47-25.54,17.18-25.54,17.18l8.31,3.87Z" transform="translate(-104.1 514.245)" fill="#ff9a7d"/>
    <path id="Path_4638" data-name="Path 4638" d="M1733.64,200.92s11.12-12.43,23.28-13.91c7.82-.95,12.86-1.68,15.46-2.09a2.571,2.571,0,0,0,2.21-2.43h0a3.088,3.088,0,0,0-2.98-3.18,66.526,66.526,0,0,0-22.78,2.88c-10.75,3.47-25.54,17.18-25.54,17.18l10.35,1.55Z" transform="translate(-104.1 514.245)" fill="#ff9a7d"/>
    <path id="Path_4639" data-name="Path 4639" d="M1736.66,195.54s11.12-12.43,23.28-13.91c7.83-.95,12.87-1.69,15.47-2.09a2.581,2.581,0,0,0,2.21-2.43h0a3.089,3.089,0,0,0-2.99-3.18,66.526,66.526,0,0,0-22.78,2.88c-10.75,3.47-25.54,17.18-25.54,17.18l10.35,1.55Z" transform="translate(-104.1 514.245)" fill="#ff9a7d"/>
    <path id="Path_4640" data-name="Path 4640" d="M1719.16,210.2s25.09-31.43,36.92-34.57c7.62-2.03,15.05-3.15,17.56-3.91a2.558,2.558,0,0,0,1.83-2.71h0a3.262,3.262,0,0,0-3.4-2.87c-5.49.21-17.24,1.2-26.54,5.71-10.15,4.92-35.13,31.65-35.13,31.65Z" transform="translate(-104.1 514.245)" fill="#ff9a7d"/>
    <path id="Path_4641" data-name="Path 4641" d="M1746.33,173.93l5.42-9.82a3.945,3.945,0,0,0-1.78-5.48h0a3.728,3.728,0,0,0-4.59,1.1c-1.85,2.48-6.23,8.62-11.1,11.98-7.84,5.41-10.44,9.44-11.72,14.57-2.05,8.23-12.31,17.81-12.31,17.81l32.79-17.21,3.29-12.95Z" transform="translate(-104.1 514.245)" fill="#ff9a7d"/>
    <path id="Path_4642" data-name="Path 4642" d="M1741.77,189a.41.41,0,0,0,0,.22.419.419,0,0,0,.52.26,70.686,70.686,0,0,1,23.67-3.24.406.406,0,1,0,.05-.81,71.306,71.306,0,0,0-23.98,3.28.449.449,0,0,0-.28.29Z" transform="translate(-104.1 514.245)"/>
    <path id="Path_4643" data-name="Path 4643" d="M1742.89,184.52a.424.424,0,0,0,.04.29.411.411,0,0,0,.56.16,34.412,34.412,0,0,1,5.47-2.4,69.41,69.41,0,0,1,23.09-3.04,3.351,3.351,0,0,1,1.79.78.434.434,0,0,0,.59-.05.391.391,0,0,0-.05-.57,4.251,4.251,0,0,0-2.29-.97,70.185,70.185,0,0,0-23.39,3.08,34.736,34.736,0,0,0-5.61,2.46.415.415,0,0,0-.21.26Z" transform="translate(-104.1 514.245)"/>
    <path id="Path_4644" data-name="Path 4644" d="M1742.91,180.18a.386.386,0,0,0,.05.31.418.418,0,0,0,.57.13,40.448,40.448,0,0,1,8.21-3.97,62.077,62.077,0,0,1,12.01-2.41.419.419,0,0,0,.37-.45.408.408,0,0,0-.46-.35,62.94,62.94,0,0,0-12.17,2.45,40.6,40.6,0,0,0-8.39,4.05.426.426,0,0,0-.19.25Z" transform="translate(-104.1 514.245)"/>
    <path id="Path_4645" data-name="Path 4645" d="M1740.8,173.69a.4.4,0,0,0,.07.33.423.423,0,0,0,.58.09c1.18-.83,7.92-3.91,7.98-3.94a.4.4,0,0,0,.2-.54.413.413,0,0,0-.55-.19c-.28.13-6.87,3.14-8.12,4.01a.407.407,0,0,0-.16.23Z" transform="translate(-104.1 514.245)"/>
    <path id="Path_4646" data-name="Path 4646" d="M1721.57,199.6c-.03.11-.05.21-.07.32a.408.408,0,0,0,.32.48.418.418,0,0,0,.49-.32c.02-.1.04-.2.07-.3,1.73-6.96,11.36-12.27,11.46-12.32a.4.4,0,0,0,.16-.55.411.411,0,0,0-.56-.16,36.187,36.187,0,0,0-5.34,3.73c-2.48,2.08-5.58,5.33-6.52,9.12Z" transform="translate(-104.1 514.245)"/>
    <path id="Path_4647" data-name="Path 4647" d="M1600.23,171.78l.57,9.69,4.84-1.65-.07-3.47,3.58,1.36,3.21-3.29-7.97-6.14Z" transform="translate(-104.1 514.245)"/>
    <path id="Path_4652" data-name="Path 4652" d="M1582.77,167.25l-22.55,7.55,7.28,17.81,20.99-10.84Z" transform="translate(-104.1 514.245)"/>
    <path id="Path_4653" data-name="Path 4653" d="M1560.22,160.6l2.42,29.92,22.16,35.08,12.93-5.05-15.24-46.11-3.52,1.43-1.43-17.61Z" transform="translate(-104.1 514.245)" fill="#ff9a7d"/>
    <path id="Path_4654" data-name="Path 4654" d="M1621.22,294.66h-73.05a.42.42,0,1,1,0-.84h73.05a.42.42,0,1,1,0,.84Z" transform="translate(-104.1 514.245)"/>
    <path id="Path_4655" data-name="Path 4655" d="M1618.08,276.65l1.77,8.83-73.83,5.12,2.67-12.73Z" transform="translate(-104.1 514.245)"/>
    <path id="Path_4656" data-name="Path 4656" d="M1633.33,353h0l-104.92-.37a.422.422,0,0,1-.33-.16.406.406,0,0,1-.08-.35l17.19-74.34a.407.407,0,0,1,.4-.32l72.48-1.22a.47.47,0,0,1,.42.34l15.25,75.93a.411.411,0,0,1-.09.35.407.407,0,0,1-.32.15Zm-104.39-1.2,103.88.36-15.08-75.09-71.8,1.21-17,73.52Z" transform="translate(-104.1 514.245)"/>
    <path id="Path_4657" data-name="Path 4657" d="M1597.72,331.53a.423.423,0,0,1-.42-.38l-3.61-43.43a.415.415,0,0,1,.38-.45.427.427,0,0,1,.45.38l3.61,43.43a.415.415,0,0,1-.38.45h-.04Z" transform="translate(-104.1 514.245)"/>
    <path id="Path_4658" data-name="Path 4658" d="M1587.97,320.56a.419.419,0,0,1-.42-.4l-1.51-32.99a.423.423,0,0,1,.4-.44.416.416,0,0,1,.44.4l1.51,32.99a.423.423,0,0,1-.4.44h-.02Z" transform="translate(-104.1 514.245)"/>
    <path id="Path_4659" data-name="Path 4659" d="M1605.28,168.78l-22.78,5.65-1.34,5.49,4.92,29.26-10.09-25.93-9.03-3.32-43.4,18.68a38.564,38.564,0,0,0-22.48,28.28l-13.09,70.28a17.885,17.885,0,0,0,26.54,18.75l61.54-33.69,49.24-3.28V234.32l38.27,31.82a22.873,22.873,0,0,0,30.87-4.48l40.16-50.02-22.65-20.02-33.48,36.11-49.26-52.42a25.448,25.448,0,0,0-23.93-6.53Z" transform="translate(-104.1 514.245)" fill="#40476d"/>
    <path id="Path_4665" data-name="Path 4665" d="M1576.98,197.73a.4.4,0,0,1-.37-.23.416.416,0,0,1,.19-.56l2.55-1.28a.418.418,0,0,1,.37.75l-2.55,1.28a.406.406,0,0,1-.19.04Z" transform="translate(-104.1 514.245)"/>
    <path id="Path_4666" data-name="Path 4666" d="M1581.86,212.35a.427.427,0,0,1-.41-.32.421.421,0,0,1,.31-.51l2.86-.7a.422.422,0,1,1,.2.82l-2.86.7s-.07.01-.1.01Z" transform="translate(-104.1 514.245)"/>
    <path id="Path_4667" data-name="Path 4667" d="M1582.47,227.52a.427.427,0,0,1-.41-.32.421.421,0,0,1,.31-.51l2.86-.7a.422.422,0,1,1,.2.82l-2.86.7s-.07.01-.1.01Z" transform="translate(-104.1 514.245)"/>
    <path id="Path_4668" data-name="Path 4668" d="M1583.08,242.68a.427.427,0,0,1-.41-.32.421.421,0,0,1,.31-.51l2.86-.7a.422.422,0,1,1,.2.82l-2.86.7s-.07.01-.1.01Z" transform="translate(-104.1 514.245)"/>
    <path id="Path_4669" data-name="Path 4669" d="M1583.69,257.85a.427.427,0,0,1-.41-.32.421.421,0,0,1,.31-.51l2.86-.7a.416.416,0,0,1,.51.31.421.421,0,0,1-.31.51l-2.86.7S1583.72,257.85,1583.69,257.85Z" transform="translate(-104.1 514.245)"/>
    <path id="Path_4670" data-name="Path 4670" d="M1584.31,273.02a.427.427,0,0,1-.41-.32.421.421,0,0,1,.31-.51l2.86-.7a.422.422,0,1,1,.2.82l-2.86.7S1584.34,273.02,1584.31,273.02Z" transform="translate(-104.1 514.245)"/>
    <path id="Path_4671" data-name="Path 4671" d="M1560.22,174.8l15.76,8.45-5.09,19.37-19.86-16.02Z" transform="translate(-104.1 514.245)" fill="#40476d"/>
    <path id="Path_4672" data-name="Path 4672" d="M1582.77,167.25l11.24,4.33-3.18,21.03-9.68-12.68Z" transform="translate(-104.1 514.245)" fill="#40476d"/>
    <path id="Path_4673" data-name="Path 4673" d="M1590.2,281.7a.425.425,0,0,1-.42-.4l-4.08-73.92a.415.415,0,0,1,.39-.44.408.408,0,0,1,.44.39l4.08,73.92a.415.415,0,0,1-.39.44h-.02Z" transform="translate(-104.1 514.245)"/>
    <path id="Path_4674" data-name="Path 4674" d="M1535,270.76a.512.512,0,0,1-.1-.01.422.422,0,0,1-.31-.5l6.76-28.33a.409.409,0,0,1,.5-.31.422.422,0,0,1,.31.5l-6.76,28.33a.426.426,0,0,1-.41.32Z" transform="translate(-104.1 514.245)"/>
    <path id="Path_4675" data-name="Path 4675" d="M1513.79,279.83a.487.487,0,0,1-.14-.02l-8.81-3.1a.417.417,0,1,1,.27-.79l8.81,3.1a.416.416,0,0,1-.13.81Z" transform="translate(-104.1 514.245)"/>
    <path id="Path_4676" data-name="Path 4676" d="M1538.38,225.36a.4.4,0,0,1-.37-.23,30.951,30.951,0,0,0-12.86-13.81,22.092,22.092,0,0,0-7.24-2.54.41.41,0,0,1-.37-.46.417.417,0,0,1,.46-.37c.13.01,13.12,1.51,20.75,16.81a.416.416,0,0,1-.19.56.406.406,0,0,1-.19.04Z" transform="translate(-104.1 514.245)"/>
    <path id="Path_4677" data-name="Path 4677" d="M1674.03,242.76a.352.352,0,0,1-.12-.02.417.417,0,0,1-.28-.52l4.43-14.61a.418.418,0,0,1,.8.24l-4.43,14.61A.417.417,0,0,1,1674.03,242.76Z" transform="translate(-104.1 514.245)"/>
    <path id="Path_4678" data-name="Path 4678" d="M1684.21,241.94a.434.434,0,0,1-.39-.26l-3.78-9.19a.419.419,0,0,1,.23-.55.427.427,0,0,1,.55.23l3.78,9.19a.419.419,0,0,1-.23.55A.453.453,0,0,1,1684.21,241.94Z" transform="translate(-104.1 514.245)"/>
    <path id="Path_4679" data-name="Path 4679" d="M1727.59,220.8a.43.43,0,0,1-.28-.11l-22.84-20.99a.423.423,0,0,1-.03-.59.414.414,0,0,1,.59-.02l22.84,20.99a.42.42,0,0,1-.28.73Z" transform="translate(-104.1 514.245)"/>
    <path id="Path_4680" data-name="Path 4680" d="M1714.08,225.85a.432.432,0,0,1-.26-.09.425.425,0,0,1-.07-.59l14.84-18.81a.42.42,0,1,1,.66.52l-14.84,18.81A.422.422,0,0,1,1714.08,225.85Z" transform="translate(-104.1 514.245)"/>
    <path id="Path_4681" data-name="Path 4681" d="M1582.13,353a.28.28,0,0,1-.11-.02.422.422,0,0,1-.29-.52c3-10.74,16.99-11.23,17.13-11.24h.01a.421.421,0,0,1,.42.41.429.429,0,0,1-.41.43c-.13,0-13.52.48-16.35,10.63a.426.426,0,0,1-.4.31Z" transform="translate(-104.1 514.245)"/>
    <path id="Path_4682" data-name="Path 4682" d="M1625.3,234.73a.423.423,0,0,1-.42-.42V199.23a.42.42,0,0,1,.84,0v35.08A.423.423,0,0,1,1625.3,234.73Z" transform="translate(-104.1 514.245)"/>
    <path id="Path_4683" data-name="Path 4683" d="M1570.89,203.04a.411.411,0,0,1-.26-.09l-19.86-16.02a.419.419,0,1,1,.53-.65l19.36,15.62,4.92-18.74a.418.418,0,0,1,.51-.3.422.422,0,0,1,.3.51l-5.09,19.37a.416.416,0,0,1-.27.29.586.586,0,0,1-.13.02Z" transform="translate(-104.1 514.245)"/>
    <path id="Path_4684" data-name="Path 4684" d="M1590.83,193.03a.422.422,0,0,1-.33-.16l-9.68-12.68a.427.427,0,0,1,.08-.59.418.418,0,0,1,.59.08l9.08,11.9,3.03-20.05a.42.42,0,0,1,.48-.35.413.413,0,0,1,.35.48l-3.18,21.03a.405.405,0,0,1-.31.34c-.03,0-.07.01-.1.01Z" transform="translate(-104.1 514.245)"/>
    <path id="Path_4685" data-name="Path 4685" d="M1577.69,159.56l.92,11.83c-3.72,3.32-18.09-2.44-18.09-2.44l-1.34-15.74,5.9.52,12.62,5.83Z" transform="translate(-104.1 514.245)"/>
    <path id="Path_4686" data-name="Path 4686" d="M1551.08,123.38s18-11.63,29.67,2.56c15.24,18.52,9.36,31.09,2.22,37.28s-27.71,3.28-31.76-4.91S1545.29,130.62,1551.08,123.38Z" transform="translate(-104.1 514.245)" fill="#ff9a7d"/>
    <path id="Path_4687" data-name="Path 4687" d="M1571.93,145.9s-6.85-10.39-14.15.5C1557.78,146.4,1565.6,155.35,1571.93,145.9Z" transform="translate(-104.1 514.245)" fill="#fff"/>
    <path id="Path_4688" data-name="Path 4688" d="M1579.06,142.61s-1.6-13.53,7.39-7.06C1586.45,135.55,1588,144.15,1579.06,142.61Z" transform="translate(-104.1 514.245)" fill="#fff"/>
    <path id="Path_4689" data-name="Path 4689" d="M1567.81,136.61s-5.34-1.65-9.54,5.1C1558.27,141.71,1564.83,137.01,1567.81,136.61Z" transform="translate(-104.1 514.245)"/>
    <path id="Path_4690" data-name="Path 4690" d="M1577.13,132.64s1.56-3.76,7.16-1.12C1584.29,131.52,1579.34,131.06,1577.13,132.64Z" transform="translate(-104.1 514.245)"/>
    <path id="Path_4691" data-name="Path 4691" d="M1580.18,147.74a.329.329,0,0,1-.17-.04.421.421,0,0,1-.21-.55l.92-2.03-1.67.03h0a.421.421,0,0,1-.42-.41.414.414,0,0,1,.41-.42l2.33-.04a.425.425,0,0,1,.36.19.409.409,0,0,1,.03.4l-1.19,2.63a.427.427,0,0,1-.38.25Z" transform="translate(-104.1 514.245)"/>
    <path id="Path_4955" data-name="Path 4955" d="M1550.73,149.78s-6.09-3.88-7.49,2.43c-1.44,6.49,9.43,7.19,11.3,5.07C1558.35,152.94,1550.73,149.78,1550.73,149.78Z" transform="translate(-104.1 514.245)" fill="#ff9a7d"/>
    <g id="Group_3732" data-name="Group 3732" transform="translate(-104.1 514.245)">
      <path id="Path_4956" data-name="Path 4956" d="M1550.52,154.58a.477.477,0,0,1-.31-.13c-2.8-3.04-5.23-1.31-5.34-1.23a.415.415,0,0,1-.49-.67c.03-.02,3.14-2.24,6.44,1.34a.414.414,0,0,1-.02.59.43.43,0,0,1-.28.11Z"/>
      <path id="Path_4957" data-name="Path 4957" d="M1548.95,156.2h-.08a.414.414,0,0,1-.33-.49l.47-2.4a.418.418,0,1,1,.82.16l-.47,2.4a.417.417,0,0,1-.41.34Z"/>
    </g>
    <g id="Group_3733" data-name="Group 3733" transform="translate(-104.1 514.245)" clip-path="url(#clip-path)">
      <path id="Path_4958" data-name="Path 4958" d="M1588.99,135.62c.91,2.92-.46,5.94-3.06,6.75s-5.44-.9-6.35-3.82.46-5.94,3.06-6.75S1588.08,132.7,1588.99,135.62Z"/>
    </g>
    <g id="Group_3734" data-name="Group 3734" transform="translate(-104.1 514.245)" clip-path="url(#clip-path-2)">
      <path id="Path_4960" data-name="Path 4960" d="M1572.75,144.69a5.53,5.53,0,1,1-5.53-5.53A5.529,5.529,0,0,1,1572.75,144.69Z"/>
    </g>
    <g id="Group_3735" data-name="Group 3735" transform="translate(-104.1 514.245)">
      <path id="Path_4962" data-name="Path 4962" d="M1581.98,151.41a28.712,28.712,0,0,0-5.94,1.91c-1.91.79-2.45,1.94-.44,2.95a5.213,5.213,0,0,0,5.77-.42c1.63-1.28,3.7-4.84.61-4.44Z"/>
      <path id="Path_4963" data-name="Path 4963" d="M1583.4,153.09a21.293,21.293,0,0,0-5.24-.6c-.74.27-1.47.56-2.13.83-1.91.79-2.45,1.94-.44,2.95a5.213,5.213,0,0,0,5.77-.42,7.118,7.118,0,0,0,2.04-2.76Z" fill="#f15a24"/>
    </g>
    <path id="Path_4965" data-name="Path 4965" d="M1582.94,282.19a.419.419,0,0,1-.42-.4l-3.19-71.49-6.63-15.87a.419.419,0,1,1,.77-.33l6.66,15.94a.611.611,0,0,1,.03.14l3.19,71.56a.423.423,0,0,1-.4.44h-.02Z" transform="translate(-104.1 514.245)"/>
    <path id="Path_4966" data-name="Path 4966" d="M1568.84,263.77s7.39-25.04,25.03-23.16l1.44,4.6-14.56,9.14-11.91,9.42Z" transform="translate(-104.1 514.245)" fill="#ff9a7d"/>
    <g id="Group_3737" data-name="Group 3737" transform="translate(-104.1 514.245)">
      <path id="Path_4967" data-name="Path 4967" d="M1620.67,282.97,1578,288.2a.388.388,0,0,1-.43-.45l14.01-79.61a.382.382,0,0,1,.33-.32l42.67-5.23a.388.388,0,0,1,.43.45L1621,282.65A.382.382,0,0,1,1620.67,282.97Z" fill="#fff"/>
      <path id="Path_4968" data-name="Path 4968" d="M1577.95,288.62a.794.794,0,0,1-.58-.25.8.8,0,0,1-.21-.69l14.01-79.61a.8.8,0,0,1,.69-.66l42.67-5.23a.825.825,0,0,1,.68.24.8.8,0,0,1,.21.69l-14.01,79.61a.8.8,0,0,1-.69.66l-42.67,5.23h-.1Zm56.65-85.65-42.64,5.27-13.98,79.58,42.61-5.26Z"/>
    </g>
    <g id="Group_3738" data-name="Group 3738" transform="translate(-104.1 514.245)">
      <path id="Path_4969" data-name="Path 4969" d="M1623.19,282.97l-42.67,5.23a.388.388,0,0,1-.43-.45l14.01-79.61a.382.382,0,0,1,.33-.32l42.67-5.23a.388.388,0,0,1,.43.45l-14.01,79.61A.382.382,0,0,1,1623.19,282.97Z" fill="#fff"/>
      <path id="Path_4970" data-name="Path 4970" d="M1580.47,288.62a.794.794,0,0,1-.58-.25.8.8,0,0,1-.21-.69l14.01-79.61a.8.8,0,0,1,.69-.66l42.67-5.23a.825.825,0,0,1,.68.24.8.8,0,0,1,.21.69l-14.01,79.61a.8.8,0,0,1-.69.66l-42.67,5.23h-.1Zm56.65-85.65-42.64,5.27-13.98,79.58,42.61-5.26Z"/>
    </g>
    <g id="Group_3739" data-name="Group 3739" transform="translate(-104.1 514.245)">
      <path id="Path_4971" data-name="Path 4971" d="M1625.51,282.97l-42.67,5.23a.388.388,0,0,1-.43-.45l14.01-79.61a.382.382,0,0,1,.33-.32l42.67-5.23a.388.388,0,0,1,.43.45l-14.01,79.61A.382.382,0,0,1,1625.51,282.97Z" fill="#fff"/>
      <path id="Path_4972" data-name="Path 4972" d="M1582.79,288.62a.794.794,0,0,1-.58-.25.8.8,0,0,1-.21-.69l14.01-79.61a.8.8,0,0,1,.69-.66l42.67-5.23a.825.825,0,0,1,.68.24.8.8,0,0,1,.21.69l-14.01,79.61a.8.8,0,0,1-.69.66l-42.67,5.23h-.1Zm56.65-85.65-42.63,5.27-13.98,79.58,42.61-5.26,14.01-79.59Zm-13.98,79.58Z"/>
    </g>
    <g id="Group_3746" data-name="Group 3746" transform="translate(-104.1 514.245)">
      <g id="Group_3741" data-name="Group 3741">
        <path id="Path_4973" data-name="Path 4973" d="M1572.01,280.79s33.47-21.25,39.55-30.05c3-4.34,1.82-5.34,1.82-5.34l-43.77,28.2,2.41,7.2Z" fill="#ff9a7d"/>
      </g>
      <g id="Group_3743" data-name="Group 3743">
        <path id="Path_4976" data-name="Path 4976" d="M1578.01,272.97s28.04-17.48,34.65-26.51c3.26-4.45,2.04-5.44,2.04-5.44l-40.9,28.88,4.2,3.07Z" fill="#ff9a7d"/>
      </g>
      <path id="Path_4979" data-name="Path 4979" d="M1572.96,274.15s34.49-22.82,41.1-31.85c3.26-4.45,2.04-5.44,2.04-5.44h0a3.077,3.077,0,0,0-4.35-.56l-42.48,33.35Z" fill="#ff9a7d"/>
      <path id="Path_4980" data-name="Path 4980" d="M1567.15,272.22s34.49-22.82,41.1-31.85c3.26-4.45,2.04-5.44,2.04-5.44h0a3.077,3.077,0,0,0-4.35-.56l-42.48,33.35Z" fill="#ff9a7d"/>
      <path id="Path_4981" data-name="Path 4981" d="M1597.17,257.47a.287.287,0,0,0,.06-.04c9.06-6.82,14.81-11.85,17.09-14.95.35-.48.67-.94.94-1.38a.319.319,0,1,0-.54-.34c-.27.42-.57.87-.92,1.34-2.24,3.06-7.94,8.04-16.96,14.82a.319.319,0,0,0-.06.45.314.314,0,0,0,.38.1Z"/>
      <g id="Group_3744" data-name="Group 3744" clip-path="url(#clip-path-3)">
        <path id="Path_4982" data-name="Path 4982" d="M1593.73,253.74a.272.272,0,0,0,.07-.04c6.42-4.93,12.69-9.93,15.08-13.2,3.27-4.47,2.23-5.68,1.98-5.88l-.4.49-.01-.01s.86.99-2.08,5.02c-2.34,3.2-8.57,8.17-14.96,13.07a.32.32,0,0,0-.06.45.328.328,0,0,0,.38.1Z"/>
      </g>
      <g id="Group_3745" data-name="Group 3745" clip-path="url(#clip-path-4)">
        <path id="Path_4984" data-name="Path 4984" d="M1598.87,259.15a.287.287,0,0,0,.06-.04c5.62-4.18,12.68-10.3,15.31-13.89a.315.315,0,1,0-.51-.37c-1.96,2.68-7.8,8.26-15.17,13.75a.319.319,0,0,0-.07.44.314.314,0,0,0,.38.1Z"/>
      </g>
    </g>
    <g id="Group_3747" data-name="Group 3747" transform="translate(-104.1 514.245)">
      <path id="Path_4988" data-name="Path 4988" d="M1593.6,224.18l14.67-17.77.54,14.38s-1.21-2.09-6.75-.94a17.532,17.532,0,0,0-8.46,4.33Z" fill="#fff"/>
      <path id="Path_4989" data-name="Path 4989" d="M1593.6,224.6a.43.43,0,0,1-.28-.11.411.411,0,0,1-.04-.58l14.67-17.77a.437.437,0,0,1,.46-.13.419.419,0,0,1,.28.38l.54,14.38a.419.419,0,0,1-.78.23c0-.01-1.2-1.8-6.31-.74a17.221,17.221,0,0,0-8.24,4.21.433.433,0,0,1-.3.13Zm14.3-17.07-11.71,14.18a18.3,18.3,0,0,1,5.79-2.26c3.56-.73,5.45-.16,6.38.4l-.46-12.32Z"/>
    </g>
    <g id="Group_3748" data-name="Group 3748" transform="translate(-104.1 514.245)">
      <path id="Path_4990" data-name="Path 4990" d="M1630.93,213.65a2.429,2.429,0,0,1-1.64-.65,2.629,2.629,0,0,1-.82-2.22l.57-5.18a.423.423,0,0,1,.46-.37.416.416,0,0,1,.37.46l-.57,5.18a1.8,1.8,0,0,0,.56,1.51,1.542,1.542,0,0,0,1.36.4,1.609,1.609,0,0,0,1.28-1.45l.57-5.18a.41.41,0,0,1,.46-.37.416.416,0,0,1,.37.46l-.57,5.18a2.457,2.457,0,0,1-1.96,2.18,2.283,2.283,0,0,1-.45.04Z" fill="#fd521b"/>
      <path id="Path_4991" data-name="Path 4991" d="M1631.18,211.36a2.429,2.429,0,0,1-1.64-.65,2.629,2.629,0,0,1-.82-2.22l.57-5.18a2.457,2.457,0,0,1,1.96-2.18,2.408,2.408,0,0,1,2.09.61,2.629,2.629,0,0,1,.82,2.22l-.57,5.18a2.457,2.457,0,0,1-1.96,2.18A2.283,2.283,0,0,1,1631.18,211.36Zm.51-9.43a.956.956,0,0,0-.29.03,1.609,1.609,0,0,0-1.28,1.45l-.57,5.18a1.8,1.8,0,0,0,.56,1.51,1.542,1.542,0,0,0,1.36.4h0a1.609,1.609,0,0,0,1.28-1.45l.57-5.18a1.8,1.8,0,0,0-.56-1.51,1.59,1.59,0,0,0-1.08-.43Z" fill="#fd521b"/>
    </g>
    <path id="Path_4992" data-name="Path 4992" d="M1565.55,257.28l-58.71,24.91,24.71,24.41,44.51-24.37Z" transform="translate(-104.1 514.245)" fill="#40476d"/>
    <path id="Path_4993" data-name="Path 4993" d="M1567.06,287.57a.416.416,0,0,1-.38-.25l-10.98-25.83a.419.419,0,1,1,.77-.33l10.98,25.83a.414.414,0,0,1-.22.55.453.453,0,0,1-.16.03Z" transform="translate(-104.1 514.245)"/>
    <path id="Path_4994" data-name="Path 4994" d="M1549.3,288.1a.42.42,0,0,1-.18-.8l23.78-11.37a.421.421,0,0,1,.36.76l-23.78,11.37a.392.392,0,0,1-.18.04Z" transform="translate(-104.1 514.245)"/>
    <path id="Path_4995" data-name="Path 4995" d="M1509.42,281.7a.4.4,0,0,1-.38-.25.414.414,0,0,1,.22-.55l56.14-24.01a.419.419,0,0,1,.33.77l-56.14,24.01a.453.453,0,0,1-.16.03Z" transform="translate(-104.1 514.245)"/>
    <path id="Path_4996" data-name="Path 4996" d="M1576.06,282.65a.434.434,0,0,1-.39-.26l-10.34-24.56-55.75,23.84a.419.419,0,0,1-.33-.77l56.14-24.01a.4.4,0,0,1,.32,0,.4.4,0,0,1,.23.23l10.5,24.95a.423.423,0,0,1-.22.55.453.453,0,0,1-.16.03Z" transform="translate(-104.1 514.245)"/>
    <path id="Path_4997" data-name="Path 4997" d="M1568.84,263.77l.85-2.44,8.32,15.56-3.29,2.16Z" transform="translate(-104.1 514.245)"/>
    <path id="Path_4998" data-name="Path 4998" d="M1718.84,194l-1.54,2.35,11.62,10.27,2.33-2.53Z" transform="translate(-104.1 514.245)"/>
    <path id="Path_4999" data-name="Path 4999" d="M1846.41,353.88h0l-344.78-.84a.835.835,0,0,1,.01-1.67h0l344.79.84a.835.835,0,0,1-.01,1.67Z" transform="translate(-104.1 514.245)"/>
    <path id="Path_5025" data-name="Path 5025" d="M1615.62,373.93a5.362,5.362,0,0,1-2.23,2.11,7.692,7.692,0,0,1-3.65.79h-2.43v5.97h-4.91V365.12h7.35a7.973,7.973,0,0,1,3.62.75,5.09,5.09,0,0,1,2.24,2.08,6.14,6.14,0,0,1,.75,3.06,5.9,5.9,0,0,1-.74,2.92Zm-4.28-2.92c0-1.29-.69-1.93-2.08-1.93h-1.96v3.84h1.96C1610.65,372.92,1611.34,372.28,1611.34,371.01Z" transform="translate(-104.1 514.245)"/>
    <path id="Path_5026" data-name="Path 5026" d="M1625.26,369.31a4.853,4.853,0,0,1,2.53-.7v5.24h-1.38a3.74,3.74,0,0,0-2.38.63,2.662,2.662,0,0,0-.78,2.18v6.14h-4.91V368.73h4.91v2.48a6.41,6.41,0,0,1,2.01-1.91Z" transform="translate(-104.1 514.245)"/>
    <path id="Path_5027" data-name="Path 5027" d="M1642.91,376.76h-9.3a2.58,2.58,0,0,0,.64,1.72,1.944,1.944,0,0,0,1.44.56,1.8,1.8,0,0,0,1.75-1.1h5.24a6.2,6.2,0,0,1-1.27,2.6,6.53,6.53,0,0,1-2.37,1.79,7.445,7.445,0,0,1-3.16.65,7.58,7.58,0,0,1-3.7-.88,6.3,6.3,0,0,1-2.53-2.51,8.515,8.515,0,0,1-.02-7.66,6.251,6.251,0,0,1,2.52-2.5,8.368,8.368,0,0,1,7.41-.03,6.144,6.144,0,0,1,2.51,2.44,7.488,7.488,0,0,1,.9,3.75,7.335,7.335,0,0,1-.08,1.15Zm-4.94-2.38a1.786,1.786,0,0,0-.6-1.42,2.236,2.236,0,0,0-1.5-.51,2.185,2.185,0,0,0-1.48.49,2.386,2.386,0,0,0-.75,1.44h4.34Z" transform="translate(-104.1 514.245)"/>
    <path id="Path_5028" data-name="Path 5028" d="M1647.59,382.34a5.779,5.779,0,0,1-2.36-1.76,4.539,4.539,0,0,1-.97-2.52h4.76a1.521,1.521,0,0,0,.63,1.05,2.2,2.2,0,0,0,1.3.38,1.575,1.575,0,0,0,.95-.25.774.774,0,0,0,.35-.65.825.825,0,0,0-.58-.78,11.634,11.634,0,0,0-1.91-.55,16.652,16.652,0,0,1-2.51-.68,4.212,4.212,0,0,1-1.74-1.23,3.426,3.426,0,0,1-.74-2.31,4.013,4.013,0,0,1,.68-2.27,4.633,4.633,0,0,1,1.99-1.62,7.6,7.6,0,0,1,3.17-.6,6.461,6.461,0,0,1,4.34,1.35,5.313,5.313,0,0,1,1.83,3.56h-4.44a1.624,1.624,0,0,0-.59-1.04,1.966,1.966,0,0,0-1.24-.36,1.58,1.58,0,0,0-.92.23.726.726,0,0,0-.31.63.82.82,0,0,0,.58.76,9.074,9.074,0,0,0,1.86.54,16.454,16.454,0,0,1,2.55.73,4.554,4.554,0,0,1,1.78,1.29,3.581,3.581,0,0,1,.76,2.42,3.711,3.711,0,0,1-.71,2.21,4.734,4.734,0,0,1-2.03,1.54,7.766,7.766,0,0,1-3.1.56,8.519,8.519,0,0,1-3.4-.64Z" transform="translate(-104.1 514.245)"/>
    <path id="Path_5029" data-name="Path 5029" d="M1672.6,376.76h-9.3a2.58,2.58,0,0,0,.64,1.72,1.944,1.944,0,0,0,1.44.56,1.8,1.8,0,0,0,1.75-1.1h5.24a6.2,6.2,0,0,1-1.27,2.6,6.53,6.53,0,0,1-2.37,1.79,7.445,7.445,0,0,1-3.16.65,7.58,7.58,0,0,1-3.7-.88,6.3,6.3,0,0,1-2.53-2.51,8.515,8.515,0,0,1-.02-7.66,6.251,6.251,0,0,1,2.52-2.5,8.368,8.368,0,0,1,7.41-.03,6.144,6.144,0,0,1,2.51,2.44,7.488,7.488,0,0,1,.9,3.75,7.335,7.335,0,0,1-.08,1.15Zm-4.94-2.38a1.786,1.786,0,0,0-.6-1.42,2.236,2.236,0,0,0-1.5-.51,2.185,2.185,0,0,0-1.48.49,2.386,2.386,0,0,0-.75,1.44h4.34Z" transform="translate(-104.1 514.245)"/>
    <path id="Path_5030" data-name="Path 5030" d="M1687.75,370.22a6.4,6.4,0,0,1,1.43,4.38v8.2h-4.91v-7.55a2.7,2.7,0,0,0-.63-1.89,2.165,2.165,0,0,0-1.68-.69,2.274,2.274,0,0,0-1.73.69,2.7,2.7,0,0,0-.63,1.89v7.55h-4.91V368.73h4.91v2.01a4.8,4.8,0,0,1,1.76-1.54,5.337,5.337,0,0,1,2.53-.59,4.884,4.884,0,0,1,3.86,1.62Z" transform="translate(-104.1 514.245)"/>
    <path id="Path_5031" data-name="Path 5031" d="M1700.19,378.61v4.19h-2.13q-5.385,0-5.39-5.34v-4.64h-1.73v-4.09h1.73v-3.41h4.94v3.41h2.56v4.09h-2.56v4.71a1.145,1.145,0,0,0,.26.83,1.247,1.247,0,0,0,.89.25h1.43Z" transform="translate(-104.1 514.245)"/>
    <path id="Path_5032" data-name="Path 5032" d="M1702.43,371.94a5.991,5.991,0,0,1,2.16-2.51,5.573,5.573,0,0,1,3.05-.88,5.089,5.089,0,0,1,2.51.58,4.13,4.13,0,0,1,1.63,1.55v-1.96h4.91v14.07h-4.91v-1.96a4.092,4.092,0,0,1-1.64,1.55,5.1,5.1,0,0,1-2.5.58,5.491,5.491,0,0,1-3.05-.88,6.091,6.091,0,0,1-2.16-2.52,9.606,9.606,0,0,1,0-7.63Zm8.6,1.68a2.4,2.4,0,0,0-1.82-.78,2.467,2.467,0,0,0-1.83.76,3.5,3.5,0,0,0,0,4.28,2.356,2.356,0,0,0,1.83.79,2.39,2.39,0,0,0,1.82-.78,2.983,2.983,0,0,0,.74-2.16,2.95,2.95,0,0,0-.74-2.13Z" transform="translate(-104.1 514.245)"/>
    <path id="Path_5033" data-name="Path 5033" d="M1727.79,378.61v4.19h-2.13q-5.385,0-5.39-5.34v-4.64h-1.73v-4.09h1.73v-3.41h4.94v3.41h2.56v4.09h-2.56v4.71a1.145,1.145,0,0,0,.26.83,1.247,1.247,0,0,0,.89.25h1.43Z" transform="translate(-104.1 514.245)"/>
    <path id="Path_5034" data-name="Path 5034" d="M1730.44,366.71a2.3,2.3,0,0,1-.79-1.79,2.386,2.386,0,0,1,.79-1.83,2.988,2.988,0,0,1,2.09-.73,2.892,2.892,0,0,1,2.07.73,2.386,2.386,0,0,1,.79,1.83,2.274,2.274,0,0,1-.79,1.79,3.364,3.364,0,0,1-4.16,0Zm4.53,2.02V382.8h-4.91V368.73Z" transform="translate(-104.1 514.245)"/>
    <path id="Path_5035" data-name="Path 5035" d="M1740.54,382.1a6.461,6.461,0,0,1-2.62-2.51,7.442,7.442,0,0,1-.95-3.84,7.244,7.244,0,0,1,.97-3.81,6.549,6.549,0,0,1,2.63-2.51,8.032,8.032,0,0,1,3.77-.88,7.914,7.914,0,0,1,3.77.88,6.549,6.549,0,0,1,2.63,2.51,7.987,7.987,0,0,1,0,7.63,6.432,6.432,0,0,1-2.65,2.52,8,8,0,0,1-3.79.88,7.886,7.886,0,0,1-3.77-.88Zm5.49-4.15a3.161,3.161,0,0,0,.69-2.19,3.117,3.117,0,0,0-.69-2.18,2.2,2.2,0,0,0-1.69-.75,2.168,2.168,0,0,0-1.68.75,3.163,3.163,0,0,0-.68,2.18,3.348,3.348,0,0,0,.65,2.21,2.111,2.111,0,0,0,1.68.75,2.211,2.211,0,0,0,1.72-.76Z" transform="translate(-104.1 514.245)"/>
    <path id="Path_5036" data-name="Path 5036" d="M1766.78,370.22a6.4,6.4,0,0,1,1.43,4.38v8.2h-4.91v-7.55a2.7,2.7,0,0,0-.63-1.89,2.165,2.165,0,0,0-1.68-.69,2.274,2.274,0,0,0-1.73.69,2.7,2.7,0,0,0-.63,1.89v7.55h-4.91V368.73h4.91v2.01a4.8,4.8,0,0,1,1.76-1.54,5.337,5.337,0,0,1,2.53-.59,4.884,4.884,0,0,1,3.86,1.62Z" transform="translate(-104.1 514.245)"/>
  </g>
  <rect id="Rectangle_197" data-name="Rectangle 197" width="500" height="500" transform="translate(0.001)" fill="none"/>
</svg>
