<svg xmlns="http://www.w3.org/2000/svg" xmlns:xlink="http://www.w3.org/1999/xlink" width="688.401" height="605.966" viewBox="0 0 688.401 605.966">
  <defs>
    <clipPath id="clip-path">
      <path id="Path_6293" data-name="Path 6293" d="M656.093,501.016c-36.245,41.429-94.8,60.072-142.722,87.147a442.093,442.093,0,0,1-88.059,38.053,362.378,362.378,0,0,1-97.837,16.13q-10.705.24-21.443-.256l-.9-.048a294.937,294.937,0,0,1-106.7-25.459c-32.212-14.562-61.464-35.172-84.923-61.64C52.207,485.83,36.957,381.3,69.745,294.925c32.772-86.363,109.9-152.916,198.361-179.575,0,0,271.08,48.31,349.821,92.892,47.249,26.751,68.521,86.619,77.642,140.162C704.707,401.947,691.841,460.13,656.093,501.016Z" transform="translate(1077.183 216.495)" fill="#69719b"/>
    </clipPath>
  </defs>
  <g id="illustration-home" transform="translate(0.5)">
    <path id="Path_4" data-name="Path 4" d="M656.093,501.016c-36.245,41.429-94.8,60.072-142.722,87.147a442.093,442.093,0,0,1-88.059,38.053,362.378,362.378,0,0,1-97.837,16.13q-10.705.24-21.443-.256l-.9-.048a294.937,294.937,0,0,1-106.7-25.459c-32.212-14.562-61.464-35.172-84.923-61.64C52.207,485.83,36.957,381.3,69.745,294.925c32.772-86.363,109.9-152.916,198.361-179.575,0,0,271.08,48.31,349.821,92.892,47.249,26.751,68.521,86.619,77.642,140.162C704.707,401.947,691.841,460.13,656.093,501.016Z" transform="translate(-18.809 -36.455)" fill="#69719b"/>
    <g id="Group_3608" data-name="Group 3608" transform="translate(229.952 -5.91)">
      <g id="Group_3596" data-name="Group 3596">
        <g id="Group_3594" data-name="Group 3594">
          <path id="Path_2169" data-name="Path 2169" d="M208.4,242.864a99.516,99.516,0,0,1-10.161-.519,2.5,2.5,0,0,1,.51-4.972c41.139,4.222,82.78-20.008,92.823-54.007a2.5,2.5,0,0,1,4.794,1.416c-5.011,16.964-18.076,32.861-35.847,43.615A101.054,101.054,0,0,1,208.4,242.864Z" fill="#cecce9"/>
          <path id="Path_2170" data-name="Path 2170" d="M235.325,234.154q.51,2.323,1.019,4.647" fill="none" stroke="#060305" stroke-linecap="round" stroke-linejoin="round" stroke-width="1"/>
          <path id="Path_2171" data-name="Path 2171" d="M239.535,233.169q.739,1.836,1.477,3.672" fill="none" stroke="#060305" stroke-linecap="round" stroke-linejoin="round" stroke-width="1"/>
          <path id="Path_2172" data-name="Path 2172" d="M244.385,230.975q.621,2.2,1.243,4.4" fill="none" stroke="#060305" stroke-linecap="round" stroke-linejoin="round" stroke-width="1"/>
          <path id="Path_2173" data-name="Path 2173" d="M248.886,229.231q.858,1.714,1.717,3.429" fill="none" stroke="#060305" stroke-linecap="round" stroke-linejoin="round" stroke-width="1"/>
          <path id="Path_2174" data-name="Path 2174" d="M253.87,226.623l2.247,4.142" fill="none" stroke="#060305" stroke-linecap="round" stroke-linejoin="round" stroke-width="1"/>
          <path id="Path_2175" data-name="Path 2175" d="M258.114,224.137l2.58,3.994" fill="none" stroke="#060305" stroke-linecap="round" stroke-linejoin="round" stroke-width="1"/>
          <path id="Path_2176" data-name="Path 2176" d="M262.33,220.921l3.178,4.17" fill="none" stroke="#060305" stroke-linecap="round" stroke-linejoin="round" stroke-width="1"/>
          <path id="Path_2177" data-name="Path 2177" d="M266.682,218.512l2.674,3.69" fill="none" stroke="#060305" stroke-linecap="round" stroke-linejoin="round" stroke-width="1"/>
        </g>
        <g id="Group_3595" data-name="Group 3595">
          <path id="Path_2178" data-name="Path 2178" d="M285.84,172.217a10.188,10.188,0,0,1,8.866-8.253l-1.786,9.567,5.828,1.082,1.786-9.567a10.174,10.174,0,1,1-14.694,7.171Z" fill="#220765"/>
          <path id="Path_2179" data-name="Path 2179" d="M297.142,181.334a7.1,7.1,0,0,0,6.5-6.011" fill="none" stroke="#060305" stroke-linecap="round" stroke-linejoin="round" stroke-width="1"/>
        </g>
      </g>
      <g id="Group_3599" data-name="Group 3599">
        <path id="Path_2180" data-name="Path 2180" d="M160.145,271.962h0c13.455,3.025,26.954-3.615,31.755-15.619l12.123-30.313-63.937-14.373L138.1,244.249C137.321,257.157,146.689,268.937,160.145,271.962Z" fill="#220765"/>
        <path id="Path_2181" data-name="Path 2181" d="M141.44,248.251c1.59,9.431,9.127,17.214,18.061,20.63" fill="none" stroke="#fff" stroke-linecap="round" stroke-linejoin="round" stroke-width="1"/>
        <g id="Group_3597" data-name="Group 3597">
          <path id="Path_2182" data-name="Path 2182" d="M150.463,228.458a2.793,2.793,0,1,1,2.113,3.341A2.793,2.793,0,0,1,150.463,228.458Z" fill="#f6921e"/>
          <path id="Path_2183" data-name="Path 2183" d="M150.038,225.466a4.676,4.676,0,0,1,7.7,1.563" fill="none" stroke="#060305" stroke-linecap="round" stroke-linejoin="round" stroke-width="1"/>
        </g>
        <g id="Group_3598" data-name="Group 3598">
          <path id="Path_2184" data-name="Path 2184" d="M160.29,230.667a2.793,2.793,0,1,1,2.113,3.341A2.793,2.793,0,0,1,160.29,230.667Z" fill="#fff"/>
          <path id="Path_2185" data-name="Path 2185" d="M160.425,227.283a4.355,4.355,0,0,1,6.872,2.934" fill="none" stroke="#060305" stroke-linecap="round" stroke-linejoin="round" stroke-width="1"/>
        </g>
      </g>
      <g id="Group_3602" data-name="Group 3602">
        <g id="Group_3600" data-name="Group 3600">
          <path id="Path_2186" data-name="Path 2186" d="M139.32,226.732a2.5,2.5,0,0,1-1.1-.255c-25.781-12.637-32.589-35.412-32.866-36.375a2.5,2.5,0,0,1,4.8-1.387h0c.062.216,6.548,21.648,30.264,33.273a2.5,2.5,0,0,1-1.1,4.744Z" fill="#cecce9"/>
          <path id="Path_2187" data-name="Path 2187" d="M113.885,206.475l4.9-3.185" fill="none" stroke="#060305" stroke-linecap="round" stroke-linejoin="round" stroke-width="1"/>
          <path id="Path_2188" data-name="Path 2188" d="M115.866,209.2l4.653-3.433" fill="none" stroke="#060305" stroke-linecap="round" stroke-linejoin="round" stroke-width="1"/>
          <path id="Path_2189" data-name="Path 2189" d="M117.275,211.567l4.174-3.42" fill="none" stroke="#060305" stroke-linecap="round" stroke-linejoin="round" stroke-width="1"/>
          <path id="Path_2190" data-name="Path 2190" d="M119.5,213.552l3.432-4.163" fill="none" stroke="#060305" stroke-linecap="round" stroke-linejoin="round" stroke-width="1"/>
          <path id="Path_2191" data-name="Path 2191" d="M124.406,210.618l-2.45,3.92" fill="none" stroke="#060305" stroke-linecap="round" stroke-linejoin="round" stroke-width="1"/>
          <path id="Path_2192" data-name="Path 2192" d="M126.12,212.578q-1.715,2.082-3.43,4.165" fill="none" stroke="#060305" stroke-linecap="round" stroke-linejoin="round" stroke-width="1"/>
        </g>
        <g id="Group_3601" data-name="Group 3601">
          <path id="Path_2193" data-name="Path 2193" d="M93.951,185.407a10.186,10.186,0,0,1,1.613-12l4.693,8.526,5.19-2.864-4.692-8.526a10.174,10.174,0,1,1-6.8,14.868Z" fill="#220765"/>
          <path id="Path_2194" data-name="Path 2194" d="M96.672,185.938a9.261,9.261,0,0,0,11.516-.849" fill="none" stroke="#060305" stroke-linecap="round" stroke-linejoin="round" stroke-width="1"/>
        </g>
      </g>
      <g id="Group_3607" data-name="Group 3607">
        <g id="Group_3603" data-name="Group 3603">
          <path id="Path_2195" data-name="Path 2195" d="M243.375,139.108l-5.388,7.242" fill="none" stroke="#fff" stroke-linecap="round" stroke-linejoin="round" stroke-width="1"/>
          <path id="Path_2196" data-name="Path 2196" d="M242.107,137.737a2.624,2.624,0,1,1,3.021,2.16A2.627,2.627,0,0,1,242.107,137.737Z" fill="#220765"/>
          <path id="Path_2197" data-name="Path 2197" d="M222.387,154.488a9.536,9.536,0,1,1,10.977,7.849A9.542,9.542,0,0,1,222.387,154.488Z" fill="#220765"/>
        </g>
        <g id="Group_3605" data-name="Group 3605">
          <path id="Path_2198" data-name="Path 2198" d="M190.931,135.517c29.525-4.924,58.545,21.576,64.818,59.189l-106.92,17.832C142.556,174.925,161.4,140.442,190.931,135.517Z" fill="#cecce9"/>
          <g id="Group_3604" data-name="Group 3604">
            <path id="Path_2199" data-name="Path 2199" d="M199.169,158.781a6.024,6.024,0,1,1,6.934,4.959A6.027,6.027,0,0,1,199.169,158.781Z" fill="#220765"/>
            <path id="Path_2200" data-name="Path 2200" d="M197.37,154a7.625,7.625,0,0,1,12.775-2.665" fill="none" stroke="#060305" stroke-linecap="round" stroke-linejoin="round" stroke-width="1"/>
          </g>
          <path id="Path_2201" data-name="Path 2201" d="M184.456,172.862a25.9,25.9,0,0,0,36.79-1.388" fill="none" stroke="#fff" stroke-linecap="round" stroke-linejoin="round" stroke-width="2"/>
          <path id="Path_2202" data-name="Path 2202" d="M169.249,152.066A32.97,32.97,0,0,1,193.013,138.4" fill="none" stroke="#fff" stroke-linecap="round" stroke-linejoin="round" stroke-width="1"/>
        </g>
        <g id="Group_3606" data-name="Group 3606">
          <path id="Path_2203" data-name="Path 2203" d="M151.749,172.517a9.546,9.546,0,0,1,8.323-16.581A14.832,14.832,0,0,1,151.749,172.517Z" fill="#220765"/>
          <path id="Path_2204" data-name="Path 2204" d="M141.774,156.294l8.243,4.547" fill="none" stroke="#fff" stroke-linecap="round" stroke-linejoin="round" stroke-width="1"/>
          <path id="Path_2205" data-name="Path 2205" d="M137.6,155.936a2.624,2.624,0,1,1,3.02,2.16A2.625,2.625,0,0,1,137.6,155.936Z" fill="#220765"/>
        </g>
      </g>
    </g>
    <path id="Path_7" data-name="Path 7" d="M409.708,413.9l-9.36,16.212h18.72Z" transform="translate(189.744 142.737)" fill="#e8e1fb"/>
    <path id="Path_8" data-name="Path 8" d="M444.9,322.566l16.212,9.36v-18.72Z" transform="translate(216.484 82.299)" fill="none" stroke="#060305" stroke-linecap="round" stroke-linejoin="round" stroke-width="1"/>
    <path id="Path_9" data-name="Path 9" d="M66.052,259.65l-16.212-9.36v18.72Z" transform="translate(-20.633 44.537)" fill="#e8e1fb"/>
    <path id="Path_10" data-name="Path 10" d="M153.435,82.259l9.36-16.212h-18.72Z" transform="translate(35.927 -66.047)" fill="#060305"/>
    <path id="Path_11" data-name="Path 11" d="M408.611,210.048l-9.36,16.212h18.72Z" transform="translate(189.085 20.383)" fill="#060305"/>
    <path id="Path_12" data-name="Path 12" d="M401.168,319.966a2.6,2.6,0,1,0-2.6,2.6A2.6,2.6,0,0,0,401.168,319.966Z" transform="translate(187.115 84.797)" fill="#e8e1fb"/>
    <path id="Path_13" data-name="Path 13" d="M99.725,336.026a2.6,2.6,0,1,0-2.6,2.6A2.6,2.6,0,0,0,99.725,336.026Z" transform="translate(6.188 94.435)" fill="#060305"/>
    <path id="Path_14" data-name="Path 14" d="M63.546,387.939a2.6,2.6,0,1,0-2.6,2.6A2.6,2.6,0,0,0,63.546,387.939Z" transform="translate(-15.527 125.594)" fill="none" stroke="#060305" stroke-linecap="round" stroke-linejoin="round" stroke-width="1"/>
    <path id="Path_15" data-name="Path 15" d="M463.421,205.184a2.6,2.6,0,1,0-2.6,2.6A2.6,2.6,0,0,0,463.421,205.184Z" transform="translate(224.479 15.903)" fill="#060305"/>
    <circle id="Ellipse_4" data-name="Ellipse 4" cx="2.599" cy="2.599" r="2.599" transform="translate(606.213 327.869)" fill="#e8e1fb"/>
    <path id="Path_16" data-name="Path 16" d="M430.888,267.355a2.6,2.6,0,1,0-2.6,2.6A2.6,2.6,0,0,0,430.888,267.355Z" transform="translate(204.954 53.219)" fill="#060305"/>
    <path id="Path_17" data-name="Path 17" d="M141.024,316.859a2.6,2.6,0,1,0-2.6,2.6A2.6,2.6,0,0,0,141.024,316.859Z" transform="translate(30.975 82.931)" fill="none" stroke="#060305" stroke-linecap="round" stroke-linejoin="round" stroke-width="1"/>
    <path id="Path_18" data-name="Path 18" d="M36.787,224.327a2.6,2.6,0,1,0-2.6,2.6A2.6,2.6,0,0,0,36.787,224.327Z" transform="translate(-31.588 27.393)" fill="none" stroke="#060305" stroke-linecap="round" stroke-linejoin="round" stroke-width="1"/>
    <path id="Path_19" data-name="Path 19" d="M142.647,208a2.6,2.6,0,1,0-2.6,2.6A2.6,2.6,0,0,0,142.647,208Z" transform="translate(31.951 17.593)" fill="#e8e1fb"/>
    <path id="Path_20" data-name="Path 20" d="M137.607,178.682a2.6,2.6,0,1,0-2.6,2.6A2.6,2.6,0,0,0,137.607,178.682Z" transform="translate(28.926 -0.003)" fill="#e8e1fb"/>
    <path id="Path_21" data-name="Path 21" d="M97.171,130.044a2.6,2.6,0,1,0-2.6,2.6A2.6,2.6,0,0,0,97.171,130.044Z" transform="translate(4.656 -29.197)" fill="#060305"/>
    <circle id="Ellipse_5" data-name="Ellipse 5" cx="2.599" cy="2.599" r="2.599" transform="translate(218.939 53.337)" fill="none" stroke="#060305" stroke-linecap="round" stroke-linejoin="round" stroke-width="1"/>
    <path id="Path_22" data-name="Path 22" d="M141.024,343.988a2.6,2.6,0,1,0-2.6,2.6A2.6,2.6,0,0,0,141.024,343.988Z" transform="translate(30.975 99.215)" fill="#e8e1fb"/>
    <circle id="Ellipse_6" data-name="Ellipse 6" cx="2.599" cy="2.599" r="2.599" transform="translate(621.516 522.375)" fill="#e8e1fb"/>
    <path id="Path_23" data-name="Path 23" d="M376.126,413.26a2.6,2.6,0,1,0-2.6,2.6A2.6,2.6,0,0,0,376.126,413.26Z" transform="translate(172.085 140.792)" fill="none" stroke="#060305" stroke-linecap="round" stroke-linejoin="round" stroke-width="1"/>
    <path id="Path_24" data-name="Path 24" d="M161.843,181.166h0a5.422,5.422,0,0,1-10.321,0h0a5.422,5.422,0,0,0-10.321,0h0a5.422,5.422,0,0,1-10.321,0h0a5.42,5.42,0,0,0-10.32,0h0a5.422,5.422,0,0,1-10.321,0h0a5.422,5.422,0,0,0-10.321,0h0a5.422,5.422,0,0,1-10.321,0h0a5.422,5.422,0,0,0-10.321,0h0a5.422,5.422,0,0,1-10.321,0h0a5.422,5.422,0,0,0-10.321,0" transform="translate(-15.358 0.791)" fill="none" stroke="#060305" stroke-linecap="round" stroke-linejoin="round" stroke-width="1"/>
    <path id="Path_25" data-name="Path 25" d="M424.814,135.928h0a5.422,5.422,0,0,1-10.321,0h0a5.422,5.422,0,0,0-10.321,0h0a5.421,5.421,0,0,1-10.321,0h0a5.422,5.422,0,0,0-10.321,0h0a5.421,5.421,0,0,1-10.321,0h0a5.422,5.422,0,0,0-10.321,0h0a5.422,5.422,0,0,1-10.321,0h0a5.42,5.42,0,0,0-10.32,0h0a5.421,5.421,0,0,1-10.321,0h0a5.422,5.422,0,0,0-10.321,0" transform="translate(142.479 -26.362)" fill="none" stroke="#060305" stroke-linecap="round" stroke-linejoin="round" stroke-width="1"/>
    <path id="Path_26" data-name="Path 26" d="M485.813,362.7h0a5.422,5.422,0,0,1-10.321,0h0a5.42,5.42,0,0,0-10.32,0h0a5.421,5.421,0,0,1-10.321,0h0a5.421,5.421,0,0,0-10.321,0h0a5.422,5.422,0,0,1-10.321,0h0a5.421,5.421,0,0,0-10.321,0h0a5.422,5.422,0,0,1-10.321,0h0a5.421,5.421,0,0,0-10.321,0h0a5.42,5.42,0,0,1-10.32,0h0a5.421,5.421,0,0,0-10.321,0" transform="translate(179.093 109.75)" fill="none" stroke="#060305" stroke-linecap="round" stroke-linejoin="round" stroke-width="1"/>
    <path id="Path_28" data-name="Path 28" d="M218.512,400.873l2.77-29.322" transform="translate(80.604 117.318)" fill="none" stroke="#060305" stroke-linecap="round" stroke-linejoin="round" stroke-width="1"/>
    <path id="Path_29" data-name="Path 29" d="M153.443,361.951a64.36,64.36,0,0,0,35.43-44.294" transform="translate(41.55 84.97)" fill="none" stroke="#060305" stroke-linecap="round" stroke-linejoin="round" stroke-width="1"/>
    <path id="Path_33" data-name="Path 33" d="M220.344,170.106l-3.917-1.855" transform="translate(79.353 -4.704)" fill="none" stroke="#e8e1fb" stroke-linecap="round" stroke-linejoin="round" stroke-width="1"/>
    <path id="Path_34" data-name="Path 34" d="M221.414,170.494a12.457,12.457,0,0,1,15.048-11.955" transform="translate(82.346 -10.692)" fill="none" stroke="#e8e1fb" stroke-linecap="round" stroke-linejoin="round" stroke-width="1"/>
    <path id="Path_52" data-name="Path 52" d="M341.976,412.847c29.04-15.164,49.45-45.724,52.328-78.359" transform="translate(154.708 95.072)" fill="none" stroke="#060305" stroke-linecap="round" stroke-linejoin="round" stroke-width="1"/>
    <path id="Path_94" data-name="Path 94" d="M376.325,330.78q3.6,3.855,7.193,7.707" transform="translate(102.283 74.091)" fill="none" stroke="#060305" stroke-linecap="round" stroke-linejoin="round" stroke-width="1"/>
    <path id="Path_95" data-name="Path 95" d="M400.087,331.985l8.007,11.4" transform="translate(116.546 74.814)" fill="none" stroke="#060305" stroke-linecap="round" stroke-linejoin="round" stroke-width="1"/>
    <path id="Path_42" data-name="Path 42" d="M208.019,175.838l4.33,3.431" transform="translate(74.307 -0.151)" fill="none" stroke="#fff" stroke-linecap="round" stroke-linejoin="round" stroke-width="1"/>
    <path id="Path_43" data-name="Path 43" d="M251.6,180.063q2.251-2.028,4.5-4.058" transform="translate(100.461 -0.05)" fill="none" stroke="#fff" stroke-linecap="round" stroke-linejoin="round" stroke-width="1"/>
    <path id="Path_45" data-name="Path 45" d="M172.411,231.751,121.955,256.5" transform="translate(22.65 33.409)" fill="none" stroke="#060305" stroke-linecap="round" stroke-linejoin="round" stroke-width="1"/>
    <path id="Path_47" data-name="Path 47" d="M220.255,202.635q-17.613,9.88-35.225,19.763" transform="translate(60.508 15.933)" fill="none" stroke="#060305" stroke-linecap="round" stroke-linejoin="round" stroke-width="1"/>
    <path id="Path_48" data-name="Path 48" d="M189.568,225.519l15.047-8.446" transform="translate(63.232 24.599)" fill="none" stroke="#060305" stroke-linecap="round" stroke-linejoin="round" stroke-width="1"/>
    <path id="Path_49" data-name="Path 49" d="M203.577,223.518l-9.5,8.236" transform="translate(65.94 28.468)" fill="none" stroke="#060305" stroke-linecap="round" stroke-linejoin="round" stroke-width="1"/>
    <g id="Mask_Group_1" data-name="Mask Group 1" transform="translate(-1095.991 -252.95)" clip-path="url(#clip-path)">
      <g id="Group_3783" data-name="Group 3783" transform="translate(0 2)">
        <path id="Path_6289" data-name="Path 6289" d="M209.8,243.327a2.6,2.6,0,0,1-2.6-2.6V180.876a2.6,2.6,0,0,1,5.2,0v59.855A2.6,2.6,0,0,1,209.8,243.327Z" transform="translate(1072.996 288.074)" fill="#060305"/>
        <g id="Group_3782" data-name="Group 3782" transform="translate(-2595.594 -1865.576)">
          <path id="Path_5954" data-name="Path 5954" d="M306.56,194.829c-1.841-10.782-11.152-16.044-11.152-16.044s-5.285-35.989-13.265-28.01-26.908-.115-32.681,2.313-12.054,7.507-13.979,13.9c-2.6-.961-7.767,8.262-9.566,10.521s-7.874,11.9-11.2,17.319a19.805,19.805,0,0,0-.792,18.59l88.85,8.5C310.5,216.859,308.4,205.612,306.56,194.829Z" transform="translate(3715.962 2147.66)"/>
          <path id="Path_5664" data-name="Path 5664" d="M1043.267,339.643c8.483,6.559,26.034,21.282,35.587,24.93a5.174,5.174,0,0,0,5.823-1.556h0a3.8,3.8,0,0,0-.469-5.321c-6.609-5.622-22.654-19.425-25.817-23.641-2.091-2.811-7.194-1.506-11.595.368-3.631,1.556-6.659,2.828-3.547,5.237Z" transform="translate(3132.417 2356.234)" fill="#ff9a7d"/>
          <path id="Path_5665" data-name="Path 5665" d="M1046.02,339.165s28.761,15.393,43.468,18.053a5.525,5.525,0,0,0,5.856-2.828h0a3.532,3.532,0,0,0-1.389-4.768c-7.429-4.149-28.359-14.891-32.308-18.471C1056.678,326.667,1046.02,339.165,1046.02,339.165Z" transform="translate(3135.152 2354.72)" fill="#ff9a7d"/>
          <path id="Path_5666" data-name="Path 5666" d="M1046.59,334.926s28.945,12.214,42.849,13.268a4.8,4.8,0,0,0,4.651-2.677h0a3.481,3.481,0,0,0-1.707-4.718c-7.5-3.313-25.331-11.344-29.229-14.255-4.952-3.7-16.564,8.366-16.564,8.366Z" transform="translate(3135.535 2351.799)" fill="#ff9a7d"/>
          <path id="Path_5667" data-name="Path 5667" d="M1103.7,340.345c-6.391-2.225-23.39-8.265-27.088-10.541-8.884-5.454-25.515-15.694-25.515-15.694s-24.628,7.83-26.452,9.47c-.4.351.87,2.242,3.2,4.9,1.539,3.865,6.391,15.677,10.943,22.453,5.5,8.2,9.671,13.151,12.247,17.317s8.935,4.467,9.4-1.824c.284-4.015-2.56-9.252-5.471-14.489a23.548,23.548,0,0,0,4.317,2.008c3.7,1.221,9.9-15.744,9.9-15.744s19.425,8.031,30.97,8.416a5.192,5.192,0,0,0,4.952-3.129,2.4,2.4,0,0,0-1.389-3.212Z" transform="translate(3120.718 2343.904)" fill="#ff9a7d"/>
          <path id="Path_5668" data-name="Path 5668" d="M1074.444,330.6c-1.439-.5-3.413-1.2-5.672-2.008a1.5,1.5,0,0,0-.652.786c-.418,1.2.97,2.777,3.1,3.514s4.183.351,4.6-.853a.311.311,0,0,1,.034-.117,2.388,2.388,0,0,0-1.405-1.322Z" transform="translate(3149.978 2353.65)"/>
          <path id="Path_5669" data-name="Path 5669" d="M1078.194,337.01a3.5,3.5,0,0,0-1.606-1.456c-1.2-.535-2.66-1.188-4.3-1.924a2.2,2.2,0,0,0-2.142.954c-.535,1.155.853,2.928,3.1,3.949s4.484.9,5-.251A1.613,1.613,0,0,0,1078.194,337.01Z" transform="translate(3151.315 2357.043)"/>
          <path id="Path_5670" data-name="Path 5670" d="M1077.572,342.662c-.987-.552-2.159-1.2-3.48-1.941-1.757-.418-3.229-.184-3.631.669-.535,1.155,1.088,3.028,3.614,4.183,2.275,1.037,4.5,1.121,5.3.3a3.522,3.522,0,0,0-1.807-3.2Z" transform="translate(3151.535 2361.68)"/>
          <path id="Path_5671" data-name="Path 5671" d="M1069.548,348.326q-.627-.527-1.355-1.154c-1.79-1-3.6-1.121-4.25-.184-.72,1.054.3,3.028,2.309,4.417,1.656,1.154,3.447,1.539,4.434,1.054a3.8,3.8,0,0,0-1.138-4.116Z" transform="translate(3147.061 2365.603)"/>
          <path id="Path_5672" data-name="Path 5672" d="M1041.244,343.554a3.459,3.459,0,0,0-1.339,3.781c.3.468.6.92.87,1.355a6.3,6.3,0,0,0,4.451,2.995,2,2,0,0,0,.586-.251c1.623-.937,1.907-3.463.652-5.638s-3.6-3.179-5.2-2.259Z" transform="translate(3130.976 2363.482)"/>
          <path id="Path_5673" data-name="Path 5673" d="M1070.567,351.19a.66.66,0,0,1-.452-.167c-6.625-5.638-16.832-14.841-18.588-16.9a.7.7,0,0,1,1.071-.9c1.707,2.008,11.829,11.126,18.421,16.731a.694.694,0,0,1,.084.987.682.682,0,0,1-.535.251Z" transform="translate(3138.746 2356.599)"/>
          <path id="Path_5674" data-name="Path 5674" d="M1080.992,346.491a.551.551,0,0,1-.285-.067c-12.515-5.739-25.733-15.644-25.866-15.744a.712.712,0,0,1-.134-.987.7.7,0,0,1,.987-.134c.134.1,13.235,9.922,25.6,15.594a.69.69,0,0,1-.284,1.322Z" transform="translate(3140.904 2354.204)"/>
          <path id="Path_5675" data-name="Path 5675" d="M1081.874,339.216a.592.592,0,0,1-.285-.067c-1.221-.535-2.61-1.154-4.1-1.79-7.947-3.463-17.836-7.8-21.149-10.256a.693.693,0,0,1,.837-1.1c3.179,2.376,13.4,6.843,20.864,10.106,1.489.653,2.878,1.255,4.1,1.807a.7.7,0,0,1-.285,1.339Z" transform="translate(3141.912 2351.808)"/>
          <path id="Path_5676" data-name="Path 5676" d="M1051.1,314.11s-24.628,7.83-26.452,9.47c-.4.351.87,2.242,3.2,4.9.552,1.389,1.539,3.815,2.777,6.659l29.547-15.46c-5.1-3.129-9.068-5.571-9.068-5.571Z" transform="translate(3120.718 2343.904)"/>
          <path id="Path_5964" data-name="Path 5964" d="M917.19,165.432c8.633,6.14,19.241-.05,23.641-3.2V153.67l-12.883,1.489-10.758.586Z" transform="translate(3048.433 2235.907)"/>
          <path id="Path_5683" data-name="Path 5683" d="M885.838,269.11l-2.108,15.677,134.737-3.664-1.841-12.013Z" transform="translate(3025.91 2313.613)"/>
          <path id="Path_5684" data-name="Path 5684" d="M956.88,164.76l-43.518,1.355-4.952,47.3L978.3,210.1Z" transform="translate(3042.523 2243.372)"/>
          <path id="Path_5677" data-name="Path 5677" d="M1058.746,410.32h-89.73a.719.719,0,0,1-.7-.636l-4.584-45.743h-2.777l-3.179,45.726a.71.71,0,0,1-.7.653H873.949a.693.693,0,0,1-.686-.786l18.923-140.241a.687.687,0,0,1,.686-.6h129.466a.684.684,0,0,1,.669.519L1059.4,409.45a.754.754,0,0,1-.117.6.706.706,0,0,1-.552.268Zm-89.094-1.405h88.191L1021.8,270.079H893.492L874.753,408.915h81.682l3.179-45.727a.709.709,0,0,1,.7-.653h4.066a.719.719,0,0,1,.7.636l4.584,45.743Z" transform="translate(3018.859 2313.33)"/>
          <path id="Path_5685" data-name="Path 5685" d="M1018.216,275.911l-6.257-23.591-28.41,5.287-90.566,5.5-4.952,18.839Z" transform="translate(3028.805 2302.311)"/>
          <rect id="Rectangle_172" data-name="Rectangle 172" width="25.95" height="82.92" transform="translate(3964.987 2387.854)" fill="#ff9a7d"/>
          <path id="Path_5678" data-name="Path 5678" d="M992.156,175.521l17.652-2.091c32.86.753,56.953.4,69.184,26.3,23.541,49.792,98.581,211.065,98.581,211.065l-43.485,18.739-83.924-161.457,1.188,70.639H891.25l-.3-70.3L859.26,231.3l10.39-22.57a50.6,50.6,0,0,1,40.975-29.179l31.455-3.112,14.824,2.51,3.765,39.8,14.272-38.231,17.2-5.036Z" transform="translate(3009.439 2249.208)" fill="#40476d"/>
          <path id="Path_5970" data-name="Path 5970" d="M916.81,156.115v14.657c9.637,3.9,20.3-2.878,25.95-7.429V152.97l-15.493,1.138-10.457,2.024Z" transform="translate(3048.177 2235.436)"/>
          <path id="Path_6002" data-name="Path 6002" d="M861.695,183.63s-5.3,18.07-18.17,64.5c-2.727,9.855-7.646,28.577-8.416,39.737-1.673,23.909,4.216,34.768,22.855,39.486,11.428,2.895,27.841-5.823,35.052-18.957,12.281-22.386,49.642-99.986,49.642-99.986l-30.434-12.766-50.512-12Z" transform="translate(2993 2256.074)" fill="#40476d"/>
          <path id="Path_5971" data-name="Path 5971" d="M933.23,121.612h-.067a23.486,23.486,0,0,1-4.367-1.288c-3.1-1.238-5.036-2.811-5.789-4.668-.719-1.79-.3-3.8,1.255-5.94a.395.395,0,1,1,.636.468c-1.389,1.907-1.773,3.664-1.171,5.187,1.606,4,9.487,5.454,9.57,5.471a.387.387,0,0,1-.067.77Z" transform="translate(3052.119 2206.21)"/>
          <path id="Path_5686" data-name="Path 5686" d="M943.29,164.76l19.843,14.506-10.189,37.445-24.344-30.2Z" transform="translate(3056.114 2243.372)" fill="#40476d"/>
          <path id="Path_5979" data-name="Path 5979" d="M917.859,165.57,901.73,183.021l15.694,33.145,11.227-31.789Z" transform="translate(3038.027 2243.918)" fill="#40476d"/>
          <path id="Path_5687" data-name="Path 5687" d="M950.561,208.555a.706.706,0,0,1-.552-.268l-21.667-26.9a.7.7,0,1,1,1.088-.887l20.9,25.95,12.415-32.994a.7.7,0,1,1,1.305.5L951.2,208.1a.732.732,0,0,1-.535.452h-.117Z" transform="translate(3055.836 2248.918)"/>
          <path id="Path_5980" data-name="Path 5980" d="M917.7,210.131a.7.7,0,0,1-.636-.4l-15.677-33.145a.717.717,0,0,1,.335-.937.7.7,0,0,1,.937.335l14.958,31.605L928.273,177.4a.693.693,0,0,1,1.305.468l-11.227,31.789a.7.7,0,0,1-.619.468H917.7Z" transform="translate(3037.751 2250.655)"/>
          <path id="Path_5981" data-name="Path 5981" d="M916.913,327.238h-.034a.708.708,0,0,1-.669-.736l5.772-125.652a.687.687,0,0,1,.736-.669.708.708,0,0,1,.669.736l-5.772,125.652A.7.7,0,0,1,916.913,327.238Z" transform="translate(3047.773 2267.213)"/>
          <path id="Path_5972" data-name="Path 5972" d="M925.613,289.96h-.034a.708.708,0,0,1-.669-.736l3.614-74.554a.587.587,0,0,1,.034-.2l10.658-30.133a.693.693,0,0,1,1.305.469L929.9,214.837l-3.614,74.454a.712.712,0,0,1-.7.669Z" transform="translate(3053.629 2256.238)"/>
          <path id="Path_5688" data-name="Path 5688" d="M998.115,276.538a.729.729,0,0,1-.569-.284.678.678,0,0,1,.151-.97l23.374-17.367a.694.694,0,1,1,.82,1.121L998.517,276.4a.628.628,0,0,1-.418.134Z" transform="translate(3102.429 2305.984)"/>
          <path id="Path_5689" data-name="Path 5689" d="M995.715,272.213a.725.725,0,0,1-.318-.067.7.7,0,0,1-.318-.937l8.031-16.062a.7.7,0,0,1,1.255.619l-8.031,16.062A.677.677,0,0,1,995.715,272.213Z" transform="translate(3100.814 2303.951)"/>
          <path id="Path_5690" data-name="Path 5690" d="M972.361,254.944h-.134a.71.71,0,0,1-.552-.82l14.456-70.957a.7.7,0,1,1,1.372.268l-14.456,70.957A.683.683,0,0,1,972.361,254.944Z" transform="translate(3085.101 2255.383)"/>
          <path id="Path_6007" data-name="Path 6007" d="M879.823,288.838h-.117a.712.712,0,0,1-.586-.8L894.2,194.858,851,184.6a.7.7,0,0,1,.318-1.355l43.836,10.407a.716.716,0,0,1,.535.786l-15.175,93.812a.7.7,0,0,1-.686.586Z" transform="translate(3003.516 2255.805)"/>
          <path id="Path_6008" data-name="Path 6008" d="M876,247.367a.678.678,0,0,1-.569-.3l-6.324-9.035a.7.7,0,1,1,1.138-.8l6.324,9.035a.7.7,0,0,1-.167.97.721.721,0,0,1-.4.134Z" transform="translate(3015.985 2291.955)"/>
          <path id="Path_6009" data-name="Path 6009" d="M878.693,260.849a.707.707,0,0,1-.7-.7V213.433a.7.7,0,1,1,1.405,0v46.714A.707.707,0,0,1,878.693,260.849Z" transform="translate(3022.047 2275.662)"/>
          <path id="Path_5982" data-name="Path 5982" d="M920.823,346.908a.707.707,0,0,1-.7-.7V276.353a.7.7,0,1,1,1.405,0v69.853A.707.707,0,0,1,920.823,346.908Z" transform="translate(3050.405 2318.015)"/>
          <path id="Path_5973" data-name="Path 5973" d="M929.163,325.421h0a.707.707,0,0,1-.7-.7l.1-48.855a.707.707,0,0,1,.7-.7h0a.707.707,0,0,1,.7.7l-.1,48.855A.707.707,0,0,1,929.163,325.421Z" transform="translate(3056.019 2317.685)"/>
          <path id="Path_5691" data-name="Path 5691" d="M1022.447,284.765H883.293a.7.7,0,0,1,0-1.405h139.154a.7.7,0,0,1,0,1.405Z" transform="translate(3025.143 2323.205)"/>
          <path id="Path_6010" data-name="Path 6010" d="M894.458,205.6a.768.768,0,0,1-.167-.017L847.761,193.8a.7.7,0,0,1,.351-1.355l46.53,11.779a.7.7,0,0,1,.5.853.709.709,0,0,1-.669.535Z" transform="translate(3001.345 2261.995)"/>
          <path id="Path_6011" data-name="Path 6011" d="M862.151,231.289h-.134a.693.693,0,0,1-.552-.82l8.4-42.882a.7.7,0,0,1,.82-.552.693.693,0,0,1,.552.82l-8.4,42.882a.7.7,0,0,1-.686.569Z" transform="translate(3010.916 2258.358)"/>
          <path id="Path_5957" data-name="Path 5957" d="M945.893,136.068s5.5-6.425,10.239.535c5.99,8.8-6.408,16.681-11.7,14.406-5.3-2.292,1.456-14.941,1.456-14.941Z" transform="translate(3065.407 2222.239)" fill="#ff9a7d"/>
          <path id="Path_5958" data-name="Path 5958" d="M945.893,136.068s5.5-6.425,10.239.535c5.99,8.8-6.408,16.681-11.7,14.406-5.3-2.292,1.456-14.941,1.456-14.941Z" transform="translate(3065.407 2222.239)" fill="#ff9a7d"/>
          <path id="Path_5959" data-name="Path 5959" d="M945.245,141.376a.592.592,0,0,1-.318-.1.531.531,0,0,1-.117-.736c2.326-3.162,7.964-3.229,8.2-3.229h0a.521.521,0,0,1,.519.519.548.548,0,0,1-.519.535c-.05,0-5.337.067-7.362,2.811a.548.548,0,0,1-.418.218Z" transform="translate(3066.958 2224.895)"/>
          <path id="Path_5960" data-name="Path 5960" d="M948.831,143.356a.5.5,0,0,1-.4-.2l-3.012-3.731a.524.524,0,1,1,.82-.653l3.012,3.731a.528.528,0,0,1-.418.853Z" transform="translate(3067.354 2225.743)"/>
          <path id="Path_5996" data-name="Path 5996" d="M907.032,136.2s-5.5-6.425-10.24.535c-5.99,8.8,6.408,16.681,11.712,14.406,5.3-2.292-1.456-14.941-1.456-14.941Z" transform="translate(3033.628 2222.326)" fill="#ff9a7d"/>
          <path id="Path_5997" data-name="Path 5997" d="M907.032,136.2s-5.5-6.425-10.24.535c-5.99,8.8,6.408,16.681,11.712,14.406,5.3-2.292-1.456-14.941-1.456-14.941Z" transform="translate(3033.628 2222.326)" fill="#ff9a7d"/>
          <path id="Path_5998" data-name="Path 5998" d="M905.069,141.512a.481.481,0,0,1-.418-.218c-2.008-2.727-7.311-2.794-7.362-2.811a.527.527,0,0,1,0-1.054h0c.234,0,5.873.067,8.2,3.229a.531.531,0,0,1-.117.736.551.551,0,0,1-.318.1Z" transform="translate(3034.688 2224.976)"/>
          <path id="Path_5999" data-name="Path 5999" d="M899.564,143.486a.512.512,0,0,1-.335-.117.53.53,0,0,1-.084-.736l3.012-3.731a.515.515,0,0,1,.736-.084.53.53,0,0,1,.084.736l-3.012,3.731A.5.5,0,0,1,899.564,143.486Z" transform="translate(3036.211 2225.83)"/>
          <ellipse id="Ellipse_99" data-name="Ellipse 99" cx="37.394" cy="36.006" rx="37.394" ry="36.006" transform="translate(3938.502 2324.694)" fill="#ff9a7d"/>
          <path id="Path_5983" data-name="Path 5983" d="M921.087,137.214a.505.505,0,0,1-.268-.084.517.517,0,0,1-.167-.719l3.48-5.655a.5.5,0,0,1,.368-.234.558.558,0,0,1,.418.117l5.2,4.333a.523.523,0,1,1-.669.8l-4.752-3.932-3.162,5.137a.511.511,0,0,1-.452.251Z" transform="translate(3050.71 2220.323)"/>
          <path id="Path_5961" data-name="Path 5961" d="M929.03,138.6s5.337-19.81,21.834-6.943C950.864,131.658,944.624,145.863,929.03,138.6Z" transform="translate(3056.403 2218.166)" fill="#fff"/>
          <path id="Path_5962" data-name="Path 5962" d="M929.81,125.742s7.83-2.644,13.719,1.138C943.53,126.88,934.612,118.464,929.81,125.742Z" transform="translate(3056.928 2215.113)"/>
          <path id="Path_5984" data-name="Path 5984" d="M926.414,138.6s-5.337-19.81-21.834-6.943C904.58,131.658,910.821,145.863,926.414,138.6Z" transform="translate(3039.945 2218.166)" fill="#fff"/>
          <path id="Path_5985" data-name="Path 5985" d="M922,125.569s-7.73-2.961-13.753.586C908.25,126.154,917.5,118.09,922,125.569Z" transform="translate(3042.416 2214.852)"/>
          <path id="Path_5963" data-name="Path 5963" d="M929.87,135.03a8.394,8.394,0,0,0,7.914,5.588h.268a15.065,15.065,0,0,0,2.225-.368,8.416,8.416,0,0,0,5.906-8.014,8.569,8.569,0,0,0-.82-3.647c-8.65-3.932-13.368,2.175-15.493,6.442Z" transform="translate(3056.968 2218.173)"/>
          <path id="Path_5986" data-name="Path 5986" d="M915.408,140.607a8.381,8.381,0,0,0,7.646-6.91c-2.526-4.3-7.529-9.185-16.129-4.417a8.212,8.212,0,0,0-.535,2.945,8.372,8.372,0,0,0,2.443,5.923,13.523,13.523,0,0,0,6.559,2.443Z" transform="translate(3041.163 2218.168)"/>
          <path id="Path_5974" data-name="Path 5974" d="M932.671,141.085c-2.61-.117-7.01.686-10.407,1.439s-4.618,2.493-1.59,4.768a8.75,8.75,0,0,0,9.671.97c3.062-1.64,7.546-6.943,2.309-7.178Z" transform="translate(3049.616 2227.428)"/>
          <path id="Path_5975" data-name="Path 5975" d="M934.918,143.041a9.246,9.246,0,0,0-6.676-1.757c-.167.017-.335.05-.485.067-4.434.8-8.667,4.216-8.667,4.216a5.221,5.221,0,0,0,1.506,1.589,8.75,8.75,0,0,0,9.671.97c1.422-.77,4.2-2.945,4.668-5.12Z" transform="translate(3049.712 2227.529)" fill="#fd521b"/>
          <path id="Path_6012" data-name="Path 6012" d="M864.256,210.018l1.539-4.886s-11.444-21.2-13.351-28.527,2.025-22.487,4.082-26.987c1.288-2.811,5.956-.167,16.5,3.1,6.324,1.941,15.627.1,18.287,6.893,7.061,18.1,7.228,33.647-1.59,38.08-1.891.954-3.229,17.6-3.229,17.6L864.256,210Z" transform="translate(3004.509 2232.38)" fill="#ff9a7d"/>
          <path id="Path_6013" data-name="Path 6013" d="M869.854,161.29c5.889-2.225,10.106,2.526,12.381,6.241a5.04,5.04,0,0,0,6.308,1.907h0c2.443-1.088,5.615-9.536,4.36-11.811a33.3,33.3,0,0,0-16.961-14.118,18.325,18.325,0,0,0-15.491.98c-2.761,1.456-5.637,8.854-6.29,11.748l-1.74,7.813,17.434-2.744Z" transform="translate(3004.835 2231.801)" fill="#ff9a7d"/>
          <path id="Path_6014" data-name="Path 6014" d="M883.793,178.606a5.791,5.791,0,0,1-5.1-3.028c-2.108-4.032-5.772-8.483-11.193-6.81a.7.7,0,1,1-.4-1.339c4.952-1.523,9.52,1.138,12.849,7.5a4.364,4.364,0,0,0,5.337,2.024,3.819,3.819,0,0,0,2.225-2.125,3.737,3.737,0,0,0-.1-2.995A31.3,31.3,0,0,0,872.3,156.671c-11.913-5.6-18.706,2.259-18.99,2.593a.7.7,0,0,1-1.071-.9c.084-.084,7.747-9.035,20.663-2.961a32.707,32.707,0,0,1,15.777,15.828,5.114,5.114,0,0,1-2.894,7.027,5.713,5.713,0,0,1-1.974.351Z" transform="translate(3004.599 2235.65)"/>
          <path id="Path_6015" data-name="Path 6015" d="M886.108,170.851c-1.941,0-2.928-.887-3.965-2.577-.2-.335-1.021-.853-.686-1.054a.686.686,0,0,1,.954.234,4.326,4.326,0,0,0,5.421,1.623,3.76,3.76,0,0,0,2.091-2.259,3.628,3.628,0,0,0-.285-2.911A30.7,30.7,0,0,0,873.727,150c-6.559-2.543-11.411-1.272-14.322.268a9.621,9.621,0,0,0-4.986,6.391.7.7,0,0,1-1.372-.3,11.072,11.072,0,0,1,5.705-7.328c3.162-1.656,8.432-3.062,15.476-.335a32.03,32.03,0,0,1,16.614,14.539,4.943,4.943,0,0,1,.385,4.032,5.184,5.184,0,0,1-2.844,3.1,5.556,5.556,0,0,1-2.309.485Z" transform="translate(3005.245 2231.526)"/>
          <path id="Path_6291" data-name="Path 6291" d="M886.108,170.851c-1.941,0-2.928-.887-3.965-2.577-.2-.335-1.021-.853-.686-1.054a.686.686,0,0,1,.954.234,4.326,4.326,0,0,0,5.421,1.623,3.76,3.76,0,0,0,2.091-2.259,3.628,3.628,0,0,0-.285-2.911A30.7,30.7,0,0,0,873.727,150c-6.559-2.543-11.411-1.272-14.322.268a9.621,9.621,0,0,0-4.986,6.391.7.7,0,0,1-1.372-.3,11.072,11.072,0,0,1,5.705-7.328c3.162-1.656,8.432-3.062,15.476-.335a32.03,32.03,0,0,1,16.614,14.539,4.943,4.943,0,0,1,.385,4.032,5.184,5.184,0,0,1-2.844,3.1,5.556,5.556,0,0,1-2.309.485Z" transform="translate(3007.245 2225.526)"/>
          <path id="Path_6016" data-name="Path 6016" d="M883.793,178.606a5.791,5.791,0,0,1-5.1-3.028c-2.108-4.032-5.772-8.483-11.193-6.81a.7.7,0,1,1-.4-1.339c4.952-1.523,9.52,1.138,12.849,7.5a4.364,4.364,0,0,0,5.337,2.024,3.819,3.819,0,0,0,2.225-2.125,3.737,3.737,0,0,0-.1-2.995A31.3,31.3,0,0,0,872.3,156.671c-11.913-5.6-18.706,2.259-18.99,2.593a.7.7,0,0,1-1.071-.9c.084-.084,7.747-9.035,20.663-2.961a32.707,32.707,0,0,1,15.777,15.828,5.114,5.114,0,0,1-2.894,7.027,5.713,5.713,0,0,1-1.974.351Z" transform="translate(3004.599 2235.65)"/>
          <path id="Path_6017" data-name="Path 6017" d="M851.92,164.8s6.994-8.131,18.806-2.811a28.664,28.664,0,0,1,14.389,14.138,4.161,4.161,0,0,1-2.459,5.655h0a4.706,4.706,0,0,1-5.839-2.091c-1.891-3.6-5.538-8.265-11.277-6.475l-13.619-8.433Z" transform="translate(3004.498 2240.29)" fill="#ff9a7d"/>
          <path id="Path_6018" data-name="Path 6018" d="M881.232,183.068a5.391,5.391,0,0,1-4.768-2.777c-1.924-3.681-5.3-7.73-10.457-6.124a.693.693,0,1,1-.418-1.322c4.735-1.472,9.035.937,12.113,6.81a4.029,4.029,0,0,0,4.969,1.773,3.713,3.713,0,0,0,2.158-2.041,3.344,3.344,0,0,0-.067-2.66,28.026,28.026,0,0,0-14.054-13.8c-11.177-5.036-17.719,2.309-17.986,2.627a.7.7,0,0,1-1.054-.92c.067-.084,7.479-8.466,19.626-2.995a29.311,29.311,0,0,1,14.74,14.489,4.653,4.653,0,0,1,.1,3.781,5.06,5.06,0,0,1-2.945,2.828,5.6,5.6,0,0,1-1.941.351Z" transform="translate(3004.215 2240.022)"/>
          <path id="Path_6288" data-name="Path 6288" d="M868.241,167.344c-1.037.719-11.779,3.279-11.779,3.279h0s-1.673-16.179-2.392-19.274c-1.138-5.019-2.928-12.4-4.451-16.949a4.428,4.428,0,0,1,2.911-5.555h0a5.278,5.278,0,0,1,6.458,2.443h0l5.187,18.321,4.082,17.735h0Z" transform="translate(3002.8 2218.988)" fill="none"/>
          <path id="Path_6022" data-name="Path 6022" d="M869.742,187.993a.59.59,0,0,1-.2-.033.7.7,0,0,1-.468-.87c2.811-9.319,1.405-13.435,1.389-13.469a.7.7,0,0,1,.418-.9.712.712,0,0,1,.9.4c.067.184,1.606,4.517-1.372,14.372a.7.7,0,0,1-.669.5Z" transform="translate(3016.023 2248.699)"/>
          <path id="Path_6023" data-name="Path 6023" d="M860.337,183.28l21.6,4.384-.4,4.166-22.236-5.27Z" transform="translate(3009.466 2255.839)"/>
          <path id="Path_5976" data-name="Path 5976" d="M930.757,190.462a.725.725,0,0,1-.318-.067l-4.082-2.041a.7.7,0,0,1,.619-1.255l4.083,2.041a.7.7,0,0,1,.318.937A.677.677,0,0,1,930.757,190.462Z" transform="translate(3054.342 2258.361)"/>
          <path id="Path_5987" data-name="Path 5987" d="M927.507,204.106a.768.768,0,0,1-.167-.017l-4.584-1.121a.723.723,0,0,1-.519-.853.714.714,0,0,1,.853-.519l4.584,1.121a.723.723,0,0,1,.519.853.713.713,0,0,1-.686.535Z" transform="translate(3051.819 2268.156)"/>
          <path id="Path_5988" data-name="Path 5988" d="M926.917,218.646a.769.769,0,0,1-.167-.017l-4.584-1.121a.723.723,0,0,1-.519-.853.714.714,0,0,1,.853-.519l4.584,1.121a.723.723,0,0,1,.519.853.713.713,0,0,1-.686.535Z" transform="translate(3051.422 2277.944)"/>
          <path id="Path_5989" data-name="Path 5989" d="M926.337,233.186a.77.77,0,0,1-.167-.017l-4.584-1.121a.706.706,0,1,1,.335-1.372L926.5,231.8a.7.7,0,0,1-.167,1.389Z" transform="translate(3051.031 2287.731)"/>
          <path id="Path_5990" data-name="Path 5990" d="M925.747,247.726a.77.77,0,0,1-.167-.017L921,246.589a.706.706,0,1,1,.335-1.372l4.584,1.121a.7.7,0,0,1-.167,1.389Z" transform="translate(3050.634 2297.518)"/>
          <path id="Path_5991" data-name="Path 5991" d="M925.167,262.267a.767.767,0,0,1-.167-.017l-4.584-1.121a.706.706,0,1,1,.335-1.372l4.584,1.121a.7.7,0,0,1-.167,1.389Z" transform="translate(3050.244 2307.305)"/>
        </g>
        <path id="Path_6290" data-name="Path 6290" d="M296.1,170.427,274.94,183.734q-25.851-.017-51.7-.03l-20.79-14.714c2.335,5.429,4.38,10.6,7.551,15.586l-6.06-2.141a36.364,36.364,0,0,0,12.3,11.145,19.984,19.984,0,0,0,5.233,6.622,17.432,17.432,0,0,0,27.533-8.8c.749,0,1.448.072,2.2.072a14.8,14.8,0,0,0,7.03,10.505,13.97,13.97,0,0,0,12.232.859,18.489,18.489,0,0,0,8.523-7.983c.134-.229.245-.477.374-.711a70.915,70.915,0,0,0,14.776-12.027c-1.951.379-4.109.89-6.06,1.271Zm-62.248,23.32a4.883,4.883,0,0,1,9.486.3Zm23.016.475a4.883,4.883,0,0,1,9.467-.658Z" transform="translate(1068.253 281.733)" fill="#060305"/>
      </g>
    </g>
  </g>
</svg>
